<svg width="195" height="108" viewBox="0 0 195 108" fill="none" xmlns="http://www.w3.org/2000/svg">
<path d="M24.564 36.7829L48.3403 8.5709L49.4761 14.9662L40.055 32.8321L24.564 36.7829Z" fill="url(#paint0_linear_266_838)"/>
<path d="M82.493 25.2942L68.0773 11.6619L66.9414 5.2666L98.9785 23.5657L82.493 25.2942Z" fill="url(#paint1_linear_266_838)"/>
<path d="M23.4302 40.5302C22.979 37.9899 24.6725 35.5649 27.2128 35.1138L54.0599 30.3455C56.6002 29.8943 59.0252 31.5879 59.4763 34.1281L61.3579 44.7221C62.0347 48.5325 59.4944 52.17 55.684 52.8467L33.4364 56.7981C29.626 57.4748 25.9885 54.9346 25.3118 51.1242L23.4302 40.5302Z" fill="url(#paint2_linear_266_838)"/>
<path d="M65.2935 33.0946C64.8423 30.5544 66.5358 28.1294 69.0761 27.6782L95.9232 22.91C98.4634 22.4588 100.888 24.1523 101.34 26.6926L103.221 37.2866C103.898 41.0969 101.358 44.7345 97.5473 45.4112L75.2997 49.3625C71.4893 50.0393 67.8518 47.499 67.1751 43.6887L65.2935 33.0946Z" fill="url(#paint3_linear_266_838)"/>
<path d="M54.0078 30.3535L69.1239 27.6688L65.9185 36.6343L60.1046 37.6669L54.0078 30.3535Z" fill="url(#paint4_linear_266_838)"/>
<rect x="28.0898" y="39.7549" width="27.1624" height="12.9907" rx="1.16787" transform="rotate(-10.0711 28.0898 39.7549)" fill="#F2E5E5"/>
<ellipse cx="42.5972" cy="43.7756" rx="4.13342" ry="4.13342" transform="rotate(-10.0711 42.5972 43.7756)" fill="url(#paint5_linear_266_838)"/>
<ellipse cx="42.5969" cy="43.7752" rx="1.77146" ry="1.77146" transform="rotate(-10.0711 42.5969 43.7752)" fill="#F2E5E5"/>
<rect x="69.9492" y="32.3203" width="27.1624" height="12.9907" rx="1.16787" transform="rotate(-10.0711 69.9492 32.3203)" fill="#F2E5E5"/>
<ellipse cx="84.4566" cy="36.3411" rx="4.13342" ry="4.13342" transform="rotate(-10.0711 84.4566 36.3411)" fill="url(#paint6_linear_266_838)"/>
<ellipse cx="84.4563" cy="36.3406" rx="1.77146" ry="1.77146" transform="rotate(-10.0711 84.4563 36.3406)" fill="#F2E5E5"/>
<path d="M10.2819 79.0994C9.36477 79.0994 8.36313 79.0391 7.27701 78.9184C6.19089 78.8219 5.1289 78.7012 4.09105 78.5564C3.07734 78.3874 2.20844 78.2426 1.48436 78.1219L1.8102 74.1757C2.55842 74.2722 3.42731 74.3808 4.41689 74.5015C5.40647 74.5981 6.38397 74.6825 7.34941 74.7549C8.33899 74.8273 9.19582 74.8635 9.9199 74.8635C11.2957 74.8635 12.2973 74.5981 12.9248 74.0671C13.5524 73.5119 13.8661 72.6551 13.8661 71.4966C13.8661 70.869 13.7334 70.3742 13.4679 70.0122C13.2265 69.626 12.78 69.3243 12.1283 69.1071C11.4767 68.8657 10.5716 68.6365 9.41304 68.4192C7.48216 68.0572 5.91332 67.6107 4.70652 67.0797C3.52386 66.5487 2.65496 65.8005 2.09983 64.835C1.56884 63.8696 1.30334 62.5783 1.30334 60.9612C1.30334 59.0786 1.65332 57.6063 2.35326 56.5443C3.05321 55.4582 4.05485 54.6858 5.35819 54.2273C6.66154 53.7687 8.19417 53.5394 9.9561 53.5394C10.7526 53.5394 11.6577 53.5877 12.6714 53.6842C13.7093 53.7566 14.723 53.8532 15.7125 53.9738C16.7263 54.0945 17.5831 54.2273 18.283 54.3721L18.0658 58.3545C17.3417 58.258 16.497 58.1735 15.5315 58.1011C14.5902 58.0045 13.6489 57.9201 12.7076 57.8477C11.7904 57.7753 11.006 57.739 10.3543 57.739C8.9786 57.739 7.96488 57.9563 7.31321 58.3907C6.66154 58.8252 6.3357 59.5251 6.3357 60.4906C6.3357 61.2146 6.48052 61.7698 6.77015 62.1559C7.05978 62.5421 7.5425 62.8559 8.21831 63.0972C8.91825 63.3386 9.87163 63.592 11.0784 63.8575C12.5025 64.1713 13.7093 64.5092 14.6988 64.8712C15.7125 65.2333 16.5211 65.6677 17.1245 66.1746C17.752 66.6814 18.2106 67.3331 18.5003 68.1296C18.7899 68.9261 18.9347 69.9277 18.9347 71.1345C18.9347 73.0654 18.5847 74.6222 17.8848 75.8049C17.209 76.9634 16.2194 77.8081 14.9161 78.3391C13.6368 78.846 12.0921 79.0994 10.2819 79.0994ZM34.5627 84.168L31.2681 78.8822C30.9543 78.9546 30.6044 79.0029 30.2182 79.027C29.832 79.0753 29.4338 79.0994 29.0235 79.0994C26.3926 79.0994 24.3049 78.6408 22.7602 77.7237C21.2396 76.8065 20.1535 75.4066 19.5018 73.524C18.8501 71.6414 18.5243 69.2761 18.5243 66.428C18.5243 63.5558 18.8501 61.1784 19.5018 59.2958C20.1535 57.3891 21.2396 55.953 22.7602 54.9875C24.3049 54.0221 26.3926 53.5394 29.0235 53.5394C31.6543 53.5394 33.73 54.0221 35.2505 54.9875C36.7952 55.9288 37.8934 57.3529 38.5451 59.2596C39.2209 61.1664 39.5588 63.5558 39.5588 66.428C39.5588 69.1795 39.2692 71.4724 38.6899 73.3068C38.1107 75.117 37.109 76.4927 35.685 77.434L38.6899 82.1768L34.5627 84.168ZM29.0235 74.8998C30.544 74.8998 31.6905 74.5981 32.4628 73.9947C33.2352 73.3671 33.7541 72.4258 34.0196 71.1707C34.3092 69.8915 34.4541 68.3106 34.4541 66.428C34.4541 64.5695 34.3092 63.0007 34.0196 61.7215C33.7541 60.4181 33.2231 59.4286 32.4266 58.7528C31.6543 58.077 30.5199 57.739 29.0235 57.739C27.527 57.739 26.3806 58.077 25.5841 58.7528C24.8117 59.4286 24.2687 60.4061 23.9549 61.6853C23.6653 62.9645 23.5204 64.5454 23.5204 66.428C23.5204 68.2865 23.6653 69.8553 23.9549 71.1345C24.2445 72.3896 24.7755 73.3309 25.5479 73.9584C26.3444 74.586 27.5029 74.8998 29.0235 74.8998ZM49.5542 79.0994C47.5268 79.0994 45.8011 78.8339 44.3771 78.3029C42.9772 77.7719 41.9152 76.891 41.1911 75.66C40.467 74.405 40.105 72.7396 40.105 70.6639V53.9738H45.1011V70.8449C45.1011 72.2689 45.4753 73.2947 46.2235 73.9222C46.9958 74.5498 48.1061 74.8635 49.5542 74.8635C51.0748 74.8635 52.2213 74.5498 52.9936 73.9222C53.766 73.2947 54.1521 72.2689 54.1521 70.8449V53.9738H59.1483V70.5915C59.1483 72.6672 58.7742 74.3326 58.026 75.5876C57.3019 76.8427 56.2278 77.7478 54.8038 78.3029C53.4039 78.8339 51.6541 79.0994 49.5542 79.0994ZM58.59 78.7012L64.8895 53.9738H73.6146L79.8779 78.7012H74.8818L73.506 73.705H64.8533L63.5499 78.7012H58.59ZM65.6498 69.6864H72.7819L69.9942 58.0287H68.4737L65.6498 69.6864ZM79.5269 78.7012V53.9738H89.1934C91.1725 53.9738 92.8259 54.2273 94.1533 54.7341C95.505 55.241 96.5066 56.0857 97.1583 57.2684C97.8341 58.4511 98.172 60.0561 98.172 62.0835C98.172 63.8696 97.8461 65.3781 97.1945 66.609C96.5669 67.8158 95.6015 68.7089 94.2982 69.2881L98.172 78.7012H92.9224L89.664 70.4105H84.5231V78.7012H79.5269ZM84.5231 66.3194H89.302C90.2192 66.3194 90.9553 66.1504 91.5104 65.8125C92.0656 65.4505 92.4638 64.9557 92.7052 64.3282C92.9465 63.6765 93.0672 62.9404 93.0672 62.1197C93.0672 60.7681 92.7534 59.7544 92.1259 59.0786C91.4984 58.4028 90.5209 58.0649 89.1934 58.0649H84.5231V66.3194ZM98.7589 78.7012V53.9738H115.196V58.1373H103.755V64.1472H113.023V68.2382H103.755V74.5377H115.196V78.7012H98.7589Z" fill="url(#paint7_linear_266_838)"/>
<path d="M122.976 78.7012V54.281H137.481V55.8926H124.728V65.4575H135.379V67.0341H124.728V77.0895H137.481V78.7012H122.976ZM147.072 78.7012V68.2604L139.189 54.281H141.186L147.948 66.4385L154.71 54.281H156.707L148.824 68.2604V78.7012H147.072ZM159.135 78.7012V54.281H173.639V55.8926H160.886V65.4575H171.537V67.0341H160.886V77.0895H173.639V78.7012H159.135ZM184.072 78.9815C183.418 78.9815 182.624 78.9464 181.689 78.8764C180.778 78.8063 179.856 78.7245 178.921 78.6311C178.01 78.5143 177.205 78.4209 176.504 78.3508L176.679 76.7742C177.38 76.8443 178.174 76.926 179.062 77.0194C179.973 77.1129 180.872 77.1946 181.759 77.2647C182.647 77.3348 183.394 77.3698 184.002 77.3698C185.917 77.3698 187.353 76.9377 188.311 76.0735C189.292 75.1859 189.783 73.7377 189.783 71.729C189.783 70.6312 189.584 69.7786 189.187 69.1713C188.79 68.5407 188.159 68.0735 187.295 67.7699C186.454 67.4429 185.333 67.1626 183.932 66.929C182.297 66.6487 180.907 66.3101 179.762 65.913C178.641 65.4925 177.789 64.8385 177.205 63.951C176.621 63.0634 176.329 61.8021 176.329 60.1671C176.329 58.6255 176.644 57.3992 177.275 56.4883C177.905 55.5773 178.793 54.9233 179.937 54.5262C181.082 54.1058 182.437 53.8956 184.002 53.8956C184.656 53.8956 185.415 53.9306 186.279 54.0007C187.167 54.0474 188.031 54.1175 188.872 54.2109C189.736 54.3043 190.472 54.3978 191.079 54.4912L190.904 56.0678C190.226 55.9744 189.444 55.8926 188.556 55.8226C187.669 55.7291 186.816 55.6474 185.999 55.5773C185.205 55.5072 184.562 55.4722 184.072 55.4722C182.156 55.4722 180.685 55.8343 179.657 56.5583C178.653 57.2824 178.151 58.4503 178.151 60.0619C178.151 61.37 178.373 62.351 178.816 63.005C179.283 63.6356 179.984 64.1028 180.918 64.4064C181.853 64.7101 183.044 65.002 184.492 65.2823C185.683 65.4925 186.723 65.7378 187.61 66.0181C188.498 66.2984 189.234 66.6721 189.818 67.1392C190.402 67.583 190.845 68.167 191.149 68.8911C191.453 69.5918 191.605 70.491 191.605 71.5888C191.605 73.3874 191.313 74.8355 190.729 75.9333C190.145 77.0078 189.28 77.7902 188.136 78.2807C187.015 78.7479 185.66 78.9815 184.072 78.9815Z" fill="#498398"/>
<path d="M22.8675 100.902C22.0875 100.902 21.4475 100.787 20.9475 100.557C20.4575 100.327 20.0725 99.987 19.7925 99.537C19.5125 99.087 19.3175 98.532 19.2075 97.872C19.1075 97.212 19.0575 96.452 19.0575 95.592C19.0575 94.712 19.1075 93.937 19.2075 93.267C19.3175 92.597 19.5125 92.037 19.7925 91.587C20.0725 91.137 20.4575 90.797 20.9475 90.567C21.4475 90.337 22.0875 90.222 22.8675 90.222C23.2275 90.222 23.5825 90.242 23.9325 90.282C24.2925 90.312 24.6275 90.357 24.9375 90.417C25.2475 90.467 25.5125 90.517 25.7325 90.567L25.6875 91.572C25.4675 91.532 25.1975 91.492 24.8775 91.452C24.5575 91.412 24.2325 91.377 23.9025 91.347C23.5725 91.317 23.2725 91.302 23.0025 91.302C22.4325 91.302 21.9675 91.387 21.6075 91.557C21.2575 91.727 20.9875 91.992 20.7975 92.352C20.6075 92.702 20.4775 93.147 20.4075 93.687C20.3375 94.217 20.3025 94.852 20.3025 95.592C20.3025 96.312 20.3375 96.942 20.4075 97.482C20.4775 98.012 20.6025 98.452 20.7825 98.802C20.9725 99.142 21.2475 99.397 21.6075 99.567C21.9675 99.737 22.4375 99.822 23.0175 99.822C23.4375 99.822 23.8975 99.797 24.3975 99.747C24.9075 99.687 25.3375 99.627 25.6875 99.567L25.7325 100.587C25.4925 100.637 25.2125 100.687 24.8925 100.737C24.5725 100.787 24.2375 100.827 23.8875 100.857C23.5375 100.887 23.1975 100.902 22.8675 100.902ZM30.8317 100.902C29.9917 100.902 29.3367 100.757 28.8667 100.467C28.4067 100.177 28.0817 99.737 27.8917 99.147C27.7117 98.557 27.6217 97.812 27.6217 96.912C27.6217 96.052 27.7217 95.342 27.9217 94.782C28.1317 94.222 28.4717 93.802 28.9417 93.522C29.4117 93.242 30.0417 93.102 30.8317 93.102C31.6317 93.102 32.2667 93.242 32.7367 93.522C33.2067 93.802 33.5417 94.222 33.7417 94.782C33.9517 95.342 34.0567 96.052 34.0567 96.912C34.0567 97.812 33.9617 98.557 33.7717 99.147C33.5917 99.737 33.2667 100.177 32.7967 100.467C32.3367 100.757 31.6817 100.902 30.8317 100.902ZM30.8317 99.897C31.4117 99.897 31.8467 99.797 32.1367 99.597C32.4267 99.387 32.6167 99.062 32.7067 98.622C32.8067 98.182 32.8567 97.612 32.8567 96.912C32.8567 96.222 32.7967 95.672 32.6767 95.262C32.5567 94.852 32.3517 94.557 32.0617 94.377C31.7717 94.197 31.3617 94.107 30.8317 94.107C30.3117 94.107 29.9017 94.197 29.6017 94.377C29.3117 94.557 29.1067 94.852 28.9867 95.262C28.8667 95.672 28.8067 96.222 28.8067 96.912C28.8067 97.612 28.8517 98.182 28.9417 98.622C29.0417 99.062 29.2367 99.387 29.5267 99.597C29.8167 99.797 30.2517 99.897 30.8317 99.897ZM36.4161 100.752V93.252H37.5711V93.777C37.7411 93.677 37.9511 93.577 38.2011 93.477C38.4611 93.377 38.7361 93.292 39.0261 93.222C39.3161 93.142 39.5961 93.102 39.8661 93.102C40.5561 93.102 41.0811 93.227 41.4411 93.477C41.8111 93.717 42.0661 94.107 42.2061 94.647C42.3461 95.187 42.4161 95.897 42.4161 96.777V100.752H41.2461V96.822C41.2461 96.172 41.2061 95.652 41.1261 95.262C41.0561 94.872 40.9061 94.592 40.6761 94.422C40.4561 94.242 40.1161 94.152 39.6561 94.152C39.4061 94.152 39.1461 94.182 38.8761 94.242C38.6161 94.292 38.3711 94.362 38.1411 94.452C37.9111 94.532 37.7211 94.612 37.5711 94.692V100.752H36.4161ZM45.0124 100.752V93.252H46.1674V93.777C46.3374 93.677 46.5474 93.577 46.7974 93.477C47.0574 93.377 47.3324 93.292 47.6224 93.222C47.9124 93.142 48.1924 93.102 48.4624 93.102C49.1524 93.102 49.6774 93.227 50.0374 93.477C50.4074 93.717 50.6624 94.107 50.8024 94.647C50.9424 95.187 51.0124 95.897 51.0124 96.777V100.752H49.8424V96.822C49.8424 96.172 49.8024 95.652 49.7224 95.262C49.6524 94.872 49.5024 94.592 49.2724 94.422C49.0524 94.242 48.7124 94.152 48.2524 94.152C48.0024 94.152 47.7424 94.182 47.4724 94.242C47.2124 94.292 46.9674 94.362 46.7374 94.452C46.5074 94.532 46.3174 94.612 46.1674 94.692V100.752H45.0124ZM56.2637 100.902C55.5137 100.902 54.9187 100.757 54.4787 100.467C54.0487 100.177 53.7387 99.747 53.5487 99.177C53.3587 98.607 53.2637 97.897 53.2637 97.047C53.2637 96.097 53.3937 95.337 53.6537 94.767C53.9137 94.187 54.2787 93.767 54.7487 93.507C55.2187 93.237 55.7737 93.102 56.4137 93.102C57.4137 93.102 58.1687 93.382 58.6787 93.942C59.1887 94.492 59.4437 95.382 59.4437 96.612L59.3837 97.497H54.4487C54.4587 98.277 54.6037 98.867 54.8837 99.267C55.1637 99.667 55.6687 99.867 56.3987 99.867C56.6787 99.867 56.9837 99.862 57.3137 99.852C57.6537 99.832 57.9887 99.812 58.3187 99.792C58.6487 99.772 58.9287 99.752 59.1587 99.732L59.1887 100.647C58.9487 100.687 58.6537 100.727 58.3037 100.767C57.9637 100.807 57.6137 100.837 57.2537 100.857C56.8937 100.887 56.5637 100.902 56.2637 100.902ZM54.4487 96.552H58.2737C58.2737 95.632 58.1237 94.992 57.8237 94.632C57.5337 94.262 57.0637 94.077 56.4137 94.077C55.7837 94.077 55.2987 94.267 54.9587 94.647C54.6187 95.027 54.4487 95.662 54.4487 96.552ZM64.482 100.902C63.692 100.902 63.072 100.772 62.622 100.512C62.172 100.242 61.852 99.812 61.662 99.222C61.482 98.632 61.392 97.852 61.392 96.882C61.392 95.972 61.492 95.242 61.692 94.692C61.902 94.132 62.237 93.727 62.697 93.477C63.157 93.227 63.757 93.102 64.497 93.102C64.667 93.102 64.872 93.117 65.112 93.147C65.362 93.167 65.617 93.197 65.877 93.237C66.137 93.267 66.362 93.297 66.552 93.327L66.507 94.287C66.337 94.267 66.142 94.247 65.922 94.227C65.702 94.207 65.487 94.192 65.277 94.182C65.067 94.162 64.892 94.152 64.752 94.152C64.182 94.152 63.737 94.242 63.417 94.422C63.107 94.602 62.887 94.892 62.757 95.292C62.637 95.682 62.577 96.212 62.577 96.882C62.577 97.612 62.632 98.197 62.742 98.637C62.852 99.067 63.062 99.377 63.372 99.567C63.682 99.757 64.142 99.852 64.752 99.852C64.892 99.852 65.067 99.847 65.277 99.837C65.497 99.817 65.717 99.797 65.937 99.777C66.167 99.757 66.367 99.742 66.537 99.732L66.567 100.692C66.367 100.722 66.137 100.752 65.877 100.782C65.617 100.812 65.362 100.837 65.112 100.857C64.862 100.887 64.652 100.902 64.482 100.902ZM71.2252 100.917C70.7052 100.917 70.2902 100.837 69.9802 100.677C69.6802 100.517 69.4652 100.242 69.3352 99.852C69.2052 99.452 69.1402 98.892 69.1402 98.172V94.257H68.0752V93.252H69.1402V90.957H70.2952V93.252H72.6502V94.257H70.2952V97.827C70.2952 98.357 70.3152 98.772 70.3552 99.072C70.4052 99.362 70.5052 99.567 70.6552 99.687C70.8052 99.807 71.0402 99.867 71.3602 99.867C71.4602 99.867 71.5902 99.862 71.7502 99.852C71.9102 99.842 72.0702 99.832 72.2302 99.822C72.4002 99.802 72.5502 99.787 72.6802 99.777L72.7552 100.752C72.5352 100.782 72.2752 100.817 71.9752 100.857C71.6752 100.897 71.4252 100.917 71.2252 100.917ZM74.5489 100.752V93.252H75.7039V100.752H74.5489ZM74.5489 91.602V90.252H75.7039V91.602H74.5489ZM78.3845 100.752V93.252H79.5395V93.777C79.7095 93.677 79.9195 93.577 80.1695 93.477C80.4295 93.377 80.7045 93.292 80.9945 93.222C81.2845 93.142 81.5645 93.102 81.8345 93.102C82.5245 93.102 83.0495 93.227 83.4095 93.477C83.7795 93.717 84.0345 94.107 84.1745 94.647C84.3145 95.187 84.3845 95.897 84.3845 96.777V100.752H83.2145V96.822C83.2145 96.172 83.1745 95.652 83.0945 95.262C83.0245 94.872 82.8745 94.592 82.6445 94.422C82.4245 94.242 82.0845 94.152 81.6245 94.152C81.3745 94.152 81.1145 94.182 80.8445 94.242C80.5845 94.292 80.3395 94.362 80.1095 94.452C79.8795 94.532 79.6895 94.612 79.5395 94.692V100.752H78.3845ZM89.8758 104.277C89.0958 104.277 88.4658 104.207 87.9858 104.067C87.5158 103.937 87.1708 103.707 86.9508 103.377C86.7408 103.047 86.6358 102.597 86.6358 102.027C86.6358 101.737 86.6808 101.487 86.7708 101.277C86.8608 101.077 86.9908 100.892 87.1608 100.722C87.3408 100.542 87.5608 100.357 87.8208 100.167C87.6908 100.067 87.5858 99.927 87.5058 99.747C87.4358 99.557 87.4008 99.347 87.4008 99.117C87.4008 99.007 87.4558 98.832 87.5658 98.592C87.6858 98.342 87.8008 98.122 87.9108 97.932C87.7008 97.832 87.5058 97.697 87.3258 97.527C87.1558 97.347 87.0158 97.107 86.9058 96.807C86.7958 96.507 86.7408 96.127 86.7408 95.667C86.7408 94.747 87.0008 94.092 87.5208 93.702C88.0408 93.302 88.7158 93.102 89.5458 93.102C89.8158 93.102 90.1008 93.122 90.4008 93.162C90.7008 93.202 90.9358 93.247 91.1058 93.297L93.3408 93.237V94.227L91.9308 94.197C92.0708 94.337 92.1858 94.522 92.2758 94.752C92.3758 94.982 92.4258 95.287 92.4258 95.667C92.4258 96.317 92.3158 96.827 92.0958 97.197C91.8758 97.567 91.5508 97.827 91.1208 97.977C90.6908 98.127 90.1508 98.202 89.5008 98.202C89.4308 98.202 89.3108 98.197 89.1408 98.187C88.9808 98.167 88.8608 98.152 88.7808 98.142C88.7208 98.282 88.6608 98.442 88.6008 98.622C88.5408 98.802 88.5108 98.927 88.5108 98.997C88.5108 99.187 88.5458 99.332 88.6158 99.432C88.6858 99.532 88.8458 99.597 89.0958 99.627C89.3558 99.657 89.7608 99.672 90.3108 99.672C91.0308 99.672 91.6058 99.732 92.0358 99.852C92.4658 99.972 92.7708 100.192 92.9508 100.512C93.1408 100.822 93.2358 101.277 93.2358 101.877C93.2358 102.727 92.9408 103.337 92.3508 103.707C91.7608 104.087 90.9358 104.277 89.8758 104.277ZM89.8908 103.287C90.6308 103.287 91.1758 103.182 91.5258 102.972C91.8758 102.762 92.0508 102.417 92.0508 101.937C92.0508 101.567 91.9908 101.292 91.8708 101.112C91.7608 100.942 91.5708 100.827 91.3008 100.767C91.0308 100.717 90.6708 100.692 90.2208 100.692C90.1308 100.692 90.0058 100.692 89.8458 100.692C89.6858 100.682 89.5208 100.677 89.3508 100.677C89.1808 100.667 89.0258 100.657 88.8858 100.647C88.7558 100.637 88.6658 100.632 88.6158 100.632C88.3058 100.852 88.0908 101.047 87.9708 101.217C87.8508 101.397 87.7908 101.632 87.7908 101.922C87.7908 102.252 87.8508 102.517 87.9708 102.717C88.0908 102.917 88.3008 103.062 88.6008 103.152C88.9108 103.242 89.3408 103.287 89.8908 103.287ZM89.5458 97.272C90.1658 97.272 90.6058 97.152 90.8658 96.912C91.1258 96.662 91.2558 96.247 91.2558 95.667C91.2558 95.087 91.1258 94.672 90.8658 94.422C90.6058 94.172 90.1658 94.047 89.5458 94.047C88.9658 94.047 88.5458 94.172 88.2858 94.422C88.0358 94.672 87.9108 95.087 87.9108 95.667C87.9108 96.247 88.0358 96.662 88.2858 96.912C88.5458 97.152 88.9658 97.272 89.5458 97.272ZM99.2264 100.752V90.387H105.451V91.452H100.426V95.442H104.671V96.507H100.426V100.752H99.2264ZM107.467 100.752V93.252H108.622V100.752H107.467ZM107.467 91.602V90.252H108.622V91.602H107.467ZM111.392 100.752V89.997H112.547V100.752H111.392ZM115.328 100.752V93.252H116.483V93.777C116.723 93.637 117.048 93.492 117.458 93.342C117.868 93.182 118.263 93.102 118.643 93.102C119.143 93.102 119.543 93.162 119.843 93.282C120.153 93.402 120.403 93.597 120.593 93.867C120.793 93.757 121.038 93.642 121.328 93.522C121.618 93.402 121.928 93.302 122.258 93.222C122.598 93.142 122.928 93.102 123.248 93.102C123.928 93.102 124.448 93.222 124.808 93.462C125.178 93.692 125.433 94.077 125.573 94.617C125.713 95.157 125.783 95.877 125.783 96.777V100.752H124.628V96.822C124.628 96.172 124.588 95.652 124.508 95.262C124.438 94.872 124.293 94.592 124.073 94.422C123.853 94.242 123.518 94.152 123.068 94.152C122.668 94.152 122.273 94.212 121.883 94.332C121.503 94.452 121.208 94.572 120.998 94.692C121.068 94.952 121.113 95.277 121.133 95.667C121.163 96.047 121.178 96.442 121.178 96.852V100.752H120.023V96.882C120.023 96.202 119.988 95.667 119.918 95.277C119.848 94.877 119.698 94.592 119.468 94.422C119.248 94.242 118.913 94.152 118.463 94.152C118.083 94.152 117.708 94.212 117.338 94.332C116.968 94.452 116.683 94.572 116.483 94.692V100.752H115.328ZM128.318 97.167V96.087H132.863V97.167H128.318ZM135.631 100.752V90.387H136.831V99.672H141.361V100.752H135.631ZM146.019 100.902C145.179 100.902 144.524 100.757 144.054 100.467C143.594 100.177 143.269 99.737 143.079 99.147C142.899 98.557 142.809 97.812 142.809 96.912C142.809 96.052 142.909 95.342 143.109 94.782C143.319 94.222 143.659 93.802 144.129 93.522C144.599 93.242 145.229 93.102 146.019 93.102C146.819 93.102 147.454 93.242 147.924 93.522C148.394 93.802 148.729 94.222 148.929 94.782C149.139 95.342 149.244 96.052 149.244 96.912C149.244 97.812 149.149 98.557 148.959 99.147C148.779 99.737 148.454 100.177 147.984 100.467C147.524 100.757 146.869 100.902 146.019 100.902ZM146.019 99.897C146.599 99.897 147.034 99.797 147.324 99.597C147.614 99.387 147.804 99.062 147.894 98.622C147.994 98.182 148.044 97.612 148.044 96.912C148.044 96.222 147.984 95.672 147.864 95.262C147.744 94.852 147.539 94.557 147.249 94.377C146.959 94.197 146.549 94.107 146.019 94.107C145.499 94.107 145.089 94.197 144.789 94.377C144.499 94.557 144.294 94.852 144.174 95.262C144.054 95.672 143.994 96.222 143.994 96.912C143.994 97.612 144.039 98.182 144.129 98.622C144.229 99.062 144.424 99.387 144.714 99.597C145.004 99.797 145.439 99.897 146.019 99.897ZM152.983 100.752L150.883 93.252H152.143L153.853 99.747H154.423L156.193 93.252H157.393L155.293 100.752H152.983ZM162.02 100.902C161.27 100.902 160.675 100.757 160.235 100.467C159.805 100.177 159.495 99.747 159.305 99.177C159.115 98.607 159.02 97.897 159.02 97.047C159.02 96.097 159.15 95.337 159.41 94.767C159.67 94.187 160.035 93.767 160.505 93.507C160.975 93.237 161.53 93.102 162.17 93.102C163.17 93.102 163.925 93.382 164.435 93.942C164.945 94.492 165.2 95.382 165.2 96.612L165.14 97.497H160.205C160.215 98.277 160.36 98.867 160.64 99.267C160.92 99.667 161.425 99.867 162.155 99.867C162.435 99.867 162.74 99.862 163.07 99.852C163.41 99.832 163.745 99.812 164.075 99.792C164.405 99.772 164.685 99.752 164.915 99.732L164.945 100.647C164.705 100.687 164.41 100.727 164.06 100.767C163.72 100.807 163.37 100.837 163.01 100.857C162.65 100.887 162.32 100.902 162.02 100.902ZM160.205 96.552H164.03C164.03 95.632 163.88 94.992 163.58 94.632C163.29 94.262 162.82 94.077 162.17 94.077C161.54 94.077 161.055 94.267 160.715 94.647C160.375 95.027 160.205 95.662 160.205 96.552ZM167.463 100.752V93.252H168.618V94.257C168.808 94.127 169.048 93.987 169.338 93.837C169.628 93.677 169.948 93.527 170.298 93.387C170.648 93.247 170.998 93.147 171.348 93.087V94.272C171.008 94.342 170.663 94.437 170.313 94.557C169.963 94.667 169.638 94.787 169.338 94.917C169.048 95.047 168.808 95.162 168.618 95.262V100.752H167.463ZM175.528 100.902C175.298 100.902 175.018 100.887 174.688 100.857C174.368 100.827 174.048 100.792 173.728 100.752C173.408 100.702 173.123 100.657 172.873 100.617L172.933 99.612C173.183 99.642 173.463 99.677 173.773 99.717C174.093 99.757 174.403 99.792 174.703 99.822C175.003 99.842 175.243 99.852 175.423 99.852C175.833 99.852 176.173 99.817 176.443 99.747C176.713 99.667 176.918 99.537 177.058 99.357C177.198 99.177 177.268 98.922 177.268 98.592C177.268 98.342 177.213 98.147 177.103 98.007C177.003 97.867 176.808 97.752 176.518 97.662C176.238 97.572 175.828 97.487 175.288 97.407C174.728 97.317 174.258 97.207 173.878 97.077C173.508 96.937 173.233 96.732 173.053 96.462C172.873 96.192 172.783 95.807 172.783 95.307C172.783 94.747 172.913 94.307 173.173 93.987C173.433 93.667 173.768 93.442 174.178 93.312C174.598 93.172 175.033 93.102 175.483 93.102C175.763 93.102 176.068 93.117 176.398 93.147C176.738 93.177 177.068 93.217 177.388 93.267C177.708 93.307 177.983 93.347 178.213 93.387L178.183 94.392C177.943 94.352 177.663 94.317 177.343 94.287C177.023 94.247 176.703 94.217 176.383 94.197C176.063 94.167 175.783 94.152 175.543 94.152C175.243 94.152 174.973 94.187 174.733 94.257C174.493 94.317 174.303 94.427 174.163 94.587C174.023 94.747 173.953 94.972 173.953 95.262C173.953 95.482 174.003 95.662 174.103 95.802C174.203 95.932 174.393 96.042 174.673 96.132C174.953 96.222 175.358 96.312 175.888 96.402C176.508 96.502 177.003 96.627 177.373 96.777C177.753 96.927 178.028 97.137 178.198 97.407C178.368 97.677 178.453 98.057 178.453 98.547C178.453 99.427 178.193 100.042 177.673 100.392C177.153 100.732 176.438 100.902 175.528 100.902Z" fill="#D9D9D9"/>
<defs>
<linearGradient id="paint0_linear_266_838" x1="34.3869" y1="11.0491" x2="38.5173" y2="34.3047" gradientUnits="userSpaceOnUse">
<stop stop-color="#072531"/>
<stop offset="0.416667" stop-color="#229FCF"/>
<stop offset="0.588542" stop-color="#229FCF"/>
<stop offset="1" stop-color="#072531"/>
</linearGradient>
<linearGradient id="paint1_linear_266_838" x1="80.8948" y1="2.78838" x2="85.0251" y2="26.044" gradientUnits="userSpaceOnUse">
<stop stop-color="#072531"/>
<stop offset="0.416667" stop-color="#229FCF"/>
<stop offset="0.588542" stop-color="#229FCF"/>
<stop offset="1" stop-color="#072531"/>
</linearGradient>
<linearGradient id="paint2_linear_266_838" x1="40.6364" y1="32.7296" x2="44.5602" y2="54.8224" gradientUnits="userSpaceOnUse">
<stop stop-color="#072531"/>
<stop offset="0.416667" stop-color="#229FCF"/>
<stop offset="0.588542" stop-color="#229FCF"/>
<stop offset="1" stop-color="#072531"/>
</linearGradient>
<linearGradient id="paint3_linear_266_838" x1="82.4996" y1="25.2941" x2="86.4235" y2="47.3869" gradientUnits="userSpaceOnUse">
<stop stop-color="#072531"/>
<stop offset="0.416667" stop-color="#229FCF"/>
<stop offset="0.588542" stop-color="#229FCF"/>
<stop offset="1" stop-color="#072531"/>
</linearGradient>
<linearGradient id="paint4_linear_266_838" x1="61.5659" y1="29.0111" x2="63.0115" y2="37.1506" gradientUnits="userSpaceOnUse">
<stop stop-color="#072531"/>
<stop offset="0.416667" stop-color="#229FCF"/>
<stop offset="0.588542" stop-color="#229FCF"/>
<stop offset="1" stop-color="#072531"/>
</linearGradient>
<linearGradient id="paint5_linear_266_838" x1="42.5972" y1="39.6422" x2="42.5972" y2="47.909" gradientUnits="userSpaceOnUse">
<stop stop-color="#072531"/>
<stop offset="0.416667" stop-color="#229FCF"/>
<stop offset="0.588542" stop-color="#229FCF"/>
<stop offset="1" stop-color="#072531"/>
</linearGradient>
<linearGradient id="paint6_linear_266_838" x1="84.4566" y1="32.2076" x2="84.4566" y2="40.4745" gradientUnits="userSpaceOnUse">
<stop stop-color="#072531"/>
<stop offset="0.416667" stop-color="#229FCF"/>
<stop offset="0.588542" stop-color="#229FCF"/>
<stop offset="1" stop-color="#072531"/>
</linearGradient>
<linearGradient id="paint7_linear_266_838" x1="114" y1="53.0007" x2="2.5" y2="77.0007" gradientUnits="userSpaceOnUse">
<stop stop-color="#072531"/>
<stop offset="0.416667" stop-color="#229FCF"/>
<stop offset="0.588542" stop-color="#229FCF"/>
<stop offset="1" stop-color="#072531"/>
</linearGradient>
</defs>
</svg>
