<svg width="195" height="138" viewBox="0 0 195 138" fill="none" xmlns="http://www.w3.org/2000/svg">
<path d="M74.7682 92.5234H84.7105L95.2114 118.143H95.6583L106.159 92.5234H116.101V130.654H108.282V105.836H107.965L98.0973 130.468H92.7724L82.9045 105.743H82.588V130.654H74.7682V92.5234ZM135.628 131.213C132.686 131.213 130.154 130.617 128.031 129.425C125.921 128.221 124.295 126.521 123.153 124.324C122.011 122.115 121.44 119.502 121.44 116.486C121.44 113.544 122.011 110.962 123.153 108.74C124.295 106.518 125.903 104.787 127.976 103.546C130.061 102.304 132.506 101.684 135.311 101.684C137.198 101.684 138.954 101.988 140.58 102.596C142.219 103.192 143.646 104.092 144.863 105.296C146.091 106.5 147.047 108.014 147.73 109.839C148.413 111.651 148.754 113.773 148.754 116.206V118.385H124.606V113.469H141.288C141.288 112.327 141.04 111.316 140.543 110.434C140.047 109.553 139.358 108.864 138.476 108.368C137.608 107.859 136.596 107.604 135.442 107.604C134.238 107.604 133.17 107.884 132.239 108.442C131.321 108.988 130.601 109.727 130.079 110.658C129.558 111.576 129.291 112.6 129.279 113.73V118.403C129.279 119.818 129.539 121.041 130.061 122.071C130.595 123.101 131.345 123.896 132.314 124.454C133.282 125.013 134.43 125.292 135.758 125.292C136.639 125.292 137.446 125.168 138.179 124.92C138.911 124.672 139.538 124.299 140.059 123.803C140.58 123.306 140.978 122.698 141.251 121.978L148.586 122.462C148.214 124.225 147.451 125.764 146.296 127.08C145.154 128.383 143.677 129.401 141.865 130.133C140.065 130.853 137.986 131.213 135.628 131.213Z" fill="#CB880D"/>
<path d="M28.9035 90.8657C25.6079 90.8657 23.1212 90.0568 21.4435 88.439C19.7657 86.8211 18.9268 84.5741 18.9268 81.698L19.1066 79.7206C19.1066 79.2412 18.9867 79.0016 18.7471 79.0016L18.2078 79.3611C16.7697 81.7579 15.2717 83.9749 13.7138 86.0122C12.1559 87.9896 10.9575 89.3977 10.1186 90.2366L8.86026 91.405C8.02138 92.184 7.39222 92.5734 6.97278 92.5734C6.55334 92.5734 6.34362 92.2139 6.34362 91.4949C6.34362 90.5362 6.64322 89.3677 7.24242 87.9896C8.14122 86.0122 9.39954 83.3757 11.0174 80.0801C12.5753 76.7246 15.7211 70.8225 20.4548 62.3738C25.2484 53.8651 29.8922 46.3751 34.3862 39.9038C38.9401 33.3126 42.4754 28.8186 44.992 26.4218C45.8908 25.523 46.5799 25.0736 47.0593 25.0736C47.3589 25.0736 47.5087 25.3132 47.5087 25.7926C47.5087 25.9124 47.4487 26.3319 47.3289 27.0509C46.7896 29.4477 44.6625 33.8518 40.9474 40.2633C33.5173 52.3671 28.1245 62.194 24.769 69.7439C22.552 73.9982 21.4435 77.923 21.4435 81.5182C21.4435 83.5555 21.9827 85.2332 23.0613 86.5515C24.1399 87.8098 25.6379 88.439 27.5553 88.439C30.3116 88.439 32.9781 87.3304 35.5546 85.1134C38.1911 82.8964 40.3782 80.2299 42.1159 77.1141C43.8535 73.9982 45.2617 70.8225 46.3402 67.5868C47.4188 64.3511 47.9581 61.6248 47.9581 59.4077C47.9581 54.0748 45.5013 50.8392 40.5879 49.7007C40.528 49.461 40.498 49.2213 40.498 48.9816C40.498 48.2626 40.9175 47.8432 41.7563 47.7233C46.3702 47.7233 50.4747 46.0156 54.0699 42.6002C57.6651 39.1248 59.4627 35.1401 59.4627 30.6461C59.4627 28.1295 58.5339 25.9124 56.6764 23.995C54.8189 22.0176 51.3735 21.029 46.3402 21.029C40.8875 21.029 36.4834 22.527 33.1279 25.523C29.7723 28.519 28.0946 31.9344 28.0946 35.7693C28.0946 36.8478 28.3043 37.8365 28.7237 38.7353C28.9634 39.2147 29.0833 39.6042 29.0833 39.9038C29.0833 40.2633 28.9035 40.443 28.544 40.443C28.2444 40.443 27.9747 40.3831 27.7351 40.2633C27.3156 40.0835 26.8063 39.8438 26.2071 39.5442C25.6079 39.2446 24.799 38.4956 23.7803 37.2972C22.8216 36.0988 22.3423 34.7806 22.3423 33.3425C22.3423 29.3878 24.769 26.0023 29.6225 23.1861C34.4761 20.3099 40.3482 18.8718 47.239 18.8718C47.9581 18.8718 48.767 18.9018 49.6658 18.9617C50.6245 19.0216 52.1525 19.2913 54.2497 19.7706C56.3469 20.25 58.1744 20.9091 59.7323 21.748C61.3502 22.527 62.7883 23.7853 64.0466 25.523C65.3049 27.2606 65.9341 29.2979 65.9341 31.6348C65.9341 34.0915 65.3349 36.3685 64.1365 38.4657C62.998 40.503 61.4401 42.2406 59.4627 43.6787C57.5453 45.0569 55.508 46.1954 53.3509 47.0942C51.2537 47.993 49.0666 48.682 46.7896 49.1614C46.3702 49.3412 46.1605 49.5209 46.1605 49.7007C46.1605 49.8205 46.3402 49.9703 46.6997 50.1501C46.8795 50.2699 47.1491 50.4197 47.5087 50.5995C47.8682 50.7792 48.4674 51.2586 49.3063 52.0376C50.2051 52.8165 50.984 53.6854 51.6431 54.6441C52.3622 55.5429 52.9913 56.8012 53.5306 58.419C54.0699 60.0369 54.3395 61.7446 54.3395 63.5422C54.3395 70.433 51.763 76.7246 46.6099 82.417C41.5167 88.0495 35.6145 90.8657 28.9035 90.8657Z" fill="white"/>
<path d="M68.5347 79.7206C61.5241 86.3118 57.0301 89.6074 55.0527 89.6074C54.0341 89.6074 53.5248 88.9183 53.5248 87.5402C53.5248 86.162 54.064 84.1547 55.1426 81.5182C56.2212 78.8817 57.2997 76.5748 58.3783 74.5974L59.9961 71.7213C64.55 63.7519 67.9954 58.0296 70.3323 54.5542C71.351 53.0562 72.6392 51.7979 74.1972 50.7792C75.815 49.7007 77.313 49.1614 78.6912 49.1614C79.1705 49.1614 79.4102 49.3711 79.4102 49.7906C79.4102 50.0902 79.2005 50.6594 78.781 51.4983C78.062 52.8165 76.2944 55.9623 73.4781 60.9357C70.6619 65.909 68.9841 68.905 68.4448 69.9237C65.9881 74.2379 64.7598 77.1141 64.7598 78.5522C64.7598 79.0914 64.9395 79.3611 65.299 79.3611C65.8982 79.3611 67.8157 77.8631 71.0514 74.8671C73.568 72.3504 76.8936 68.7253 81.028 63.9916C81.2078 63.8118 81.3576 63.722 81.4774 63.722C81.5973 63.722 81.6572 63.8418 81.6572 64.0815C81.6572 65.22 81.2078 66.3285 80.309 67.407C75.8749 72.3205 71.9502 76.425 68.5347 79.7206ZM80.4888 44.0382C78.9908 44.0382 78.2418 43.1394 78.2418 41.3418C78.2418 39.6641 78.8709 37.9863 80.1293 36.3086C81.3876 34.5709 82.7657 33.702 84.2637 33.702C86.0613 33.702 86.9601 34.7207 86.9601 36.758C86.9601 38.4357 86.2711 40.0835 84.8929 41.7014C83.5147 43.2593 82.0467 44.0382 80.4888 44.0382Z" fill="white"/>
<path d="M91.4946 78.8218C91.8541 78.5222 92.3335 78.1028 92.9327 77.5635C93.5918 76.9643 94.8202 75.7659 96.6178 73.9683C98.4154 72.1108 100.123 70.2233 101.741 68.3058C103.419 66.3285 105.246 63.9017 107.224 61.0256C109.261 58.1494 110.999 55.3032 112.437 52.487C112.497 52.3671 112.527 52.2473 112.527 52.1274L112.437 51.8578C112.017 51.6181 111.538 51.4983 110.999 51.4983C108.422 51.4983 105.216 53.4157 101.381 57.2506C97.6065 61.0855 94.3708 65.22 91.6744 69.654C89.0379 74.0282 87.7197 77.174 87.7197 79.0914C87.7197 79.9303 88.0492 80.3498 88.7083 80.3498C89.4274 80.3498 90.3561 79.8404 91.4946 78.8218ZM111.358 74.8671C113.875 72.3504 117.2 68.7253 121.335 63.9916C121.515 63.8118 121.664 63.722 121.784 63.722C121.904 63.722 121.964 63.8418 121.964 64.0815C121.964 65.22 121.515 66.3285 120.616 67.407C116.182 72.3205 112.257 76.425 108.841 79.7206C101.771 86.3118 97.1271 89.6074 94.9101 89.6074C94.0712 89.6074 93.6517 89.158 93.6517 88.2592C93.6517 87.1207 94.221 85.3231 95.3595 82.8664C96.4979 80.4097 97.6664 78.2226 98.8648 76.3052L100.573 73.429C100.812 73.1294 100.932 72.8598 100.932 72.6201C100.932 72.5002 100.872 72.4403 100.752 72.4403C100.513 72.4403 100.183 72.65 99.7636 73.0695C97.9061 75.2266 95.7789 77.4436 93.3821 79.7206C90.9853 81.9976 89.0379 83.7652 87.5399 85.0235L85.3828 86.8211C82.986 88.6786 81.1884 89.6074 79.99 89.6074L79.6305 89.5175C78.6118 89.4576 78.1025 88.5588 78.1025 86.8211C78.1025 82.2672 79.6904 77.0841 82.8661 71.2719C86.1018 65.3997 90.2663 60.3065 95.3595 55.9923C100.453 51.678 105.366 49.5209 110.1 49.5209C110.579 49.5209 111.029 49.5808 111.448 49.7007C111.867 49.7606 112.167 49.8205 112.347 49.8804C112.586 49.9404 112.796 50.0302 112.976 50.1501L113.246 50.24C113.365 50.24 113.515 50.1501 113.695 49.9703C124.78 29.957 133.289 16.1455 139.221 8.53564C141.019 6.13884 142.307 4.94044 143.086 4.94044C143.385 4.94044 143.535 5.18012 143.535 5.65947C143.535 6.9178 142.576 9.49436 140.659 13.3892C131.431 30.2866 124.96 42.001 121.245 48.5322C114.594 60.3964 110.549 67.5269 109.111 69.9237C106.175 74.957 104.707 78.0129 104.707 79.0914C104.707 79.5109 104.887 79.7206 105.246 79.7206C105.546 79.7206 105.875 79.6307 106.235 79.451C106.654 79.2113 107.104 78.8817 107.583 78.4623C108.063 78.0428 108.482 77.6534 108.841 77.2938C109.261 76.9343 109.74 76.4849 110.28 75.9456C110.819 75.4064 111.178 75.0468 111.358 74.8671Z" fill="white"/>
<g clip-path="url(#clip0_261_845)">
<path d="M184.323 55.1856L182.053 52.9158C181.113 51.9756 179.589 51.9756 178.648 52.9158L178.081 53.4833L166.732 42.1342L167.299 41.5668C168.239 40.6265 168.239 39.1022 167.299 38.1621L165.029 35.8922C164.089 34.952 162.565 34.952 161.625 35.8922L149.141 48.3762C148.201 49.3164 148.201 50.8408 149.141 51.7809L151.411 54.0507C152.351 54.9909 153.875 54.9909 154.815 54.0507L155.383 53.4832L159.355 57.4554L151.226 65.5847L150.658 65.0172C149.404 63.7636 147.372 63.7636 146.118 65.0172L134.608 76.5277C133.355 77.7813 133.355 79.8137 134.608 81.0673L139.148 85.607C140.401 86.8606 142.434 86.8606 143.687 85.607L155.198 74.0966C156.451 72.843 156.451 70.8106 155.198 69.557L154.63 68.9895L162.76 60.8602L166.732 64.8323L166.164 65.3998C165.224 66.34 165.224 67.8644 166.164 68.8045L168.434 71.0743C169.374 72.0145 170.899 72.0145 171.839 71.0743L184.323 58.5903C185.263 57.6502 185.263 56.1258 184.323 55.1856Z" fill="white"/>
</g>
<defs>
<clipPath id="clip0_261_845">
<rect width="51.36" height="51.36" fill="white" transform="translate(133.668 35.187)"/>
</clipPath>
</defs>
</svg>
