<svg width="218" height="151" viewBox="0 0 218 151" fill="none" xmlns="http://www.w3.org/2000/svg">
<path d="M1.33281 60.9396C0.890625 57.4079 3.64422 54.2881 7.20345 54.2881H210.376C213.954 54.2881 216.713 57.4401 216.24 60.9871L208.603 118.218C208.211 121.157 205.704 123.352 202.739 123.352H14.3691C11.3857 123.352 8.86905 121.13 8.49841 118.17L1.33281 60.9396Z" fill="#FFB641"/>
<path d="M5.8429 64.8636C5.36375 61.3138 8.12415 58.1558 11.7062 58.1558H205.868C209.471 58.1558 212.238 61.3486 211.725 64.9147L204.588 114.522C204.169 117.434 201.674 119.596 198.732 119.596H18.402C15.4402 119.596 12.9348 117.406 12.5387 114.471L5.8429 64.8636Z" fill="black"/>
<path d="M8.61307 66.9424C8.11381 63.3828 10.8778 60.2041 14.4722 60.2041H203.099C206.715 60.2041 209.485 63.4191 208.951 66.9953L202.113 112.734C201.68 115.632 199.192 117.776 196.262 117.776H20.8875C17.9374 117.776 15.4381 115.603 15.0283 112.681L8.61307 66.9424Z" fill="#FFB641"/>
<path d="M40.9097 99.6304V79.7709H45.1085V87.9649H53.6322V79.7709H57.8213V99.6304H53.6322V91.4267H45.1085V99.6304H40.9097ZM79.5329 89.7006C79.5329 91.8663 79.1224 93.7087 78.3014 95.2279C77.4868 96.7471 76.3749 97.9075 74.9656 98.7092C73.5628 99.5043 71.9854 99.9019 70.2335 99.9019C68.4686 99.9019 66.8848 99.5011 65.4819 98.6995C64.0791 97.8978 62.9704 96.7374 62.1558 95.2182C61.3413 93.699 60.934 91.8598 60.934 89.7006C60.934 87.5349 61.3413 85.6925 62.1558 84.1733C62.9704 82.6541 64.0791 81.4969 65.4819 80.7018C66.8848 79.9002 68.4686 79.4993 70.2335 79.4993C71.9854 79.4993 73.5628 79.9002 74.9656 80.7018C76.3749 81.4969 77.4868 82.6541 78.3014 84.1733C79.1224 85.6925 79.5329 87.5349 79.5329 89.7006ZM75.2759 89.7006C75.2759 88.2978 75.0658 87.1147 74.6456 86.1515C74.2319 85.1883 73.6468 84.4578 72.8904 83.96C72.1341 83.4622 71.2484 83.2133 70.2335 83.2133C69.2185 83.2133 68.3328 83.4622 67.5765 83.96C66.8201 84.4578 66.2318 85.1883 65.8116 86.1515C65.3979 87.1147 65.191 88.2978 65.191 89.7006C65.191 91.1035 65.3979 92.2865 65.8116 93.2497C66.2318 94.213 66.8201 94.9435 67.5765 95.4413C68.3328 95.939 69.2185 96.1879 70.2335 96.1879C71.2484 96.1879 72.1341 95.939 72.8904 95.4413C73.6468 94.9435 74.2319 94.213 74.6456 93.2497C75.0658 92.2865 75.2759 91.1035 75.2759 89.7006ZM82.6432 99.6304V79.7709H86.842V96.1685H95.356V99.6304H82.6432ZM102.335 79.7709V99.6304H98.1367V79.7709H102.335ZM112.83 99.6304H105.79V79.7709H112.888C114.886 79.7709 116.605 80.1684 118.047 80.9636C119.489 81.7523 120.597 82.8868 121.373 84.3673C122.155 85.8477 122.546 87.619 122.546 89.6812C122.546 91.7499 122.155 93.5277 121.373 95.0146C120.597 96.5015 119.482 97.6425 118.028 98.4376C116.58 99.2328 114.847 99.6304 112.83 99.6304ZM109.989 96.0328H112.656C113.897 96.0328 114.941 95.813 115.788 95.3734C116.641 94.9273 117.281 94.2388 117.708 93.3079C118.141 92.3705 118.357 91.1616 118.357 89.6812C118.357 88.2137 118.141 87.0145 117.708 86.0836C117.281 85.1527 116.644 84.4675 115.797 84.0279C114.95 83.5883 113.906 83.3685 112.665 83.3685H109.989V96.0328ZM127.96 99.6304H123.46L130.316 79.7709H135.727L142.573 99.6304H138.074L133.099 84.3091H132.944L127.96 99.6304ZM127.679 91.8243H138.307V95.1019H127.679V91.8243ZM144.75 99.6304V97.1382L154.661 83.2327H144.731V79.7709H159.936V82.263L150.016 96.1685H159.955V99.6304H144.75ZM163.177 99.6304V79.7709H176.559V83.2327H167.376V87.9649H175.87V91.4267H167.376V96.1685H176.598V99.6304H163.177Z" fill="black"/>
<path d="M86.065 56.4217V26.4909L76.9058 33.5238L72.9805 28.29L108.963 0.8125L122.047 10.7894V4.08363H131.861V18.313L144.945 28.29L141.02 33.5238L131.861 26.4909V45.1861V56.4217H122.047H112.234V36.7949H105.692V56.4217H86.065ZM92.6072 49.8794H99.1495V30.2527H118.776V49.8794H122.047H125.319V45.1861V21.5024L108.963 9.0721L92.6072 21.5024V49.8794ZM102.421 23.7922H115.505C115.505 22.0476 114.851 20.6159 113.542 19.4972C112.234 18.3785 110.707 17.8202 108.963 17.8224C107.218 17.8246 105.692 18.3839 104.383 19.5005C103.075 20.617 102.421 22.0476 102.421 23.7922Z" fill="#FFB641"/>
<path fill-rule="evenodd" clip-rule="evenodd" d="M135.019 59.6728L135.006 59.6748L134.934 59.7107L134.913 59.7148L134.899 59.7107L134.826 59.6738C134.815 59.6711 134.807 59.6731 134.802 59.6799L134.798 59.6902L134.78 60.1285L134.785 60.1489L134.795 60.1623L134.902 60.238L134.917 60.2421L134.93 60.238L135.036 60.1623L135.048 60.1459L135.053 60.1285L135.035 59.6912C135.032 59.6803 135.027 59.6741 135.019 59.6728ZM135.289 59.5571L135.275 59.5591L135.086 59.6543L135.076 59.6646L135.073 59.6759L135.091 60.1162L135.097 60.1285L135.105 60.1367L135.311 60.2309C135.324 60.2343 135.333 60.2315 135.34 60.2227L135.344 60.2083L135.31 59.5796C135.306 59.5666 135.299 59.5591 135.289 59.5571ZM134.557 59.5591C134.552 59.5564 134.547 59.5555 134.542 59.5566C134.537 59.5578 134.532 59.5609 134.529 59.5653L134.523 59.5796L134.488 60.2083C134.489 60.2206 134.495 60.2288 134.506 60.2329L134.521 60.2309L134.727 60.1356L134.737 60.1274L134.74 60.1162L134.759 59.6759L134.756 59.6636L134.745 59.6533L134.557 59.5591Z" fill="white"/>
<path d="M136.46 39.042C137.516 39.042 138.529 39.4614 139.275 40.208L139.412 40.3516C139.867 40.8541 140.183 41.4617 140.336 42.1143H142.604C143.388 42.1143 144.141 42.4258 144.695 42.9805C145.25 43.5352 145.562 44.2877 145.562 45.0723V55.3125C145.562 56.097 145.25 56.8496 144.695 57.4043C144.141 57.9588 143.388 58.2705 142.604 58.2705H126.22C125.533 58.2705 124.871 58.032 124.345 57.6006L124.128 57.4043C123.573 56.8496 123.262 56.097 123.262 55.3125V45.0723L123.276 44.7803C123.344 44.103 123.642 43.466 124.128 42.9805L124.345 42.7842C124.871 42.3527 125.533 42.1143 126.22 42.1143H128.488C128.656 41.3985 129.02 40.7364 129.548 40.208L129.691 40.0723C130.422 39.4109 131.374 39.042 132.364 39.042H136.46ZM138.465 44.9668L138.428 44.9922C138.406 45.0135 138.395 45.0421 138.395 45.0723V55.3125C138.395 55.3426 138.406 55.3713 138.428 55.3926L138.465 55.417C138.478 55.4226 138.493 55.4258 138.508 55.4258C138.538 55.4258 138.568 55.4139 138.589 55.3926L138.613 55.3555C138.619 55.342 138.622 55.3274 138.622 55.3125V45.0723C138.622 45.0571 138.619 45.042 138.613 45.0283L138.589 44.9922C138.568 44.9708 138.538 44.958 138.508 44.958C138.493 44.958 138.478 44.9613 138.465 44.9668ZM130.275 44.9658L130.24 44.9873C130.221 45.0042 130.209 45.0269 130.204 45.0518L130.202 45.0967V55.3115L130.21 55.3535C130.215 55.3667 130.223 55.3792 130.233 55.3896L130.268 55.4141C130.281 55.4202 130.295 55.4239 130.31 55.4248L130.352 55.4189C130.365 55.4145 130.378 55.4077 130.389 55.3984L130.416 55.3652C130.422 55.3541 130.425 55.3417 130.427 55.3291L130.43 55.2871V45.0723C130.43 45.0422 130.418 45.0135 130.396 44.9922C130.375 44.9708 130.346 44.958 130.315 44.958C130.302 44.9581 130.288 44.961 130.275 44.9658Z" fill="white" stroke="black" stroke-width="1.82045"/>
<path d="M78.2988 52.8379C78.1685 52.8379 78.0423 52.8769 77.9355 52.9482L77.8359 53.0293C77.7132 53.152 77.6445 53.3187 77.6445 53.4922C77.6445 53.6657 77.7132 53.8324 77.8359 53.9551L77.9355 54.0361C78.0423 54.1074 78.1685 54.1465 78.2988 54.1465C78.4723 54.1465 78.639 54.0778 78.7617 53.9551L78.8428 53.8555C78.9141 53.7487 78.9531 53.6225 78.9531 53.4922C78.9531 53.3187 78.8844 53.152 78.7617 53.0293C78.639 52.9066 78.4723 52.8379 78.2988 52.8379ZM93.9434 52.8379C93.8131 52.8379 93.6869 52.8769 93.5801 52.9482L93.4805 53.0293C93.3578 53.152 93.2891 53.3187 93.2891 53.4922C93.2891 53.6657 93.3578 53.8324 93.4805 53.9551L93.5801 54.0361C93.6869 54.1074 93.8131 54.1465 93.9434 54.1465C94.1169 54.1465 94.2836 54.0778 94.4062 53.9551L94.4873 53.8555C94.5586 53.7487 94.5977 53.6225 94.5977 53.4922C94.5977 53.3187 94.5289 53.152 94.4062 53.0293C94.2836 52.9066 94.1169 52.8379 93.9434 52.8379ZM88.5957 41.6309H90.3604L88.5957 39.4248V41.6309ZM75.6943 41.6309H83.6465V38.7578H76.8438L75.6943 41.6309ZM102.676 53.4922C102.676 54.0665 102.476 54.6202 102.115 55.0605L101.951 55.2422C101.487 55.7063 100.857 55.9668 100.201 55.9668H98.9707C98.5591 56.8022 97.9449 57.5258 97.1787 58.0674C96.2325 58.7362 95.1021 59.0947 93.9434 59.0947C92.7846 59.0947 91.6542 58.7362 90.708 58.0674C89.9418 57.5258 89.3276 56.8022 88.916 55.9668H83.3262C82.9146 56.8022 82.3004 57.5258 81.5342 58.0674C80.5879 58.7362 79.4576 59.0947 78.2988 59.0947C77.2126 59.0947 76.1512 58.7799 75.2432 58.1895L75.0635 58.0674C74.2973 57.5258 73.6831 56.8022 73.2715 55.9668H72.041C71.4667 55.9668 70.913 55.7671 70.4727 55.4062L70.291 55.2422C69.8269 54.7781 69.5664 54.1485 69.5664 53.4922V44.0781L69.5684 44.0508L69.5791 43.8682L69.5811 43.8311L69.5869 43.7939L69.5986 43.7061L69.6035 43.6729L69.6104 43.6406L69.6377 43.5186L69.6475 43.4717L69.6631 43.4248L69.6768 43.3848L69.6904 43.333L69.7041 43.2852L69.7227 43.2402L72.873 35.3643C73.0566 34.9054 73.3731 34.5117 73.7822 34.2344L73.9395 34.1367C74.3127 33.9226 74.7365 33.8089 75.1689 33.8086H89.25L89.4893 33.8203C89.9632 33.8663 90.414 34.048 90.7871 34.3438L90.9678 34.501L90.9883 34.5215L91.0068 34.542L91.1436 34.6904L91.1641 34.7129L91.1826 34.7373L96.6963 41.6309H97.0723L97.3398 41.6367C98.6723 41.7003 99.9421 42.238 100.917 43.1572L101.106 43.3457C101.971 44.2423 102.512 45.4013 102.645 46.6396L102.666 46.9053L102.667 46.9189L102.668 46.9336L102.676 47.209V53.4922Z" fill="white" stroke="black" stroke-width="1.82045"/>
<rect x="103.242" y="119.597" width="11.3778" height="31.4028" fill="#FFB641"/>
</svg>
