<svg width="100" height="100" viewBox="0 0 100 100" fill="none" xmlns="http://www.w3.org/2000/svg">
<path d="M93.3335 49.9997C93.3335 52.9912 85.4917 55.4163 82.5002 55.4163C79.5087 55.4163 60.8335 52.9912 60.8335 49.9997C60.8335 47.0081 79.5087 44.583 82.5002 44.583C85.4917 44.583 93.3335 47.0081 93.3335 49.9997Z" fill="white"/>
<path d="M80.6288 80.6543C78.5134 82.7697 71.2536 78.9395 69.1383 76.8242C67.0229 74.7088 63.1928 67.449 65.3081 65.3337C67.4235 63.2184 74.6833 67.0485 76.7986 69.1639C78.9139 71.2792 82.7441 78.539 80.6288 80.6543Z" fill="white"/>
<path d="M55.4169 82.4999C55.4169 85.4915 52.9917 93.3333 50.0002 93.3333C47.0087 93.3333 44.5835 85.4915 44.5835 82.4999C44.5835 79.5084 47.0087 60.8333 50.0002 60.8333C52.9917 60.8333 55.4169 79.5084 55.4169 82.4999Z" fill="white"/>
<path d="M30.8363 76.7976C28.7209 78.9129 21.4611 82.7431 19.3458 80.6277C17.2304 78.5124 21.0606 71.2526 23.1759 69.1373C25.2913 67.0219 32.5511 63.1918 34.6664 65.3071C36.7818 67.4224 32.9516 74.6822 30.8363 76.7976Z" fill="white"/>
<path d="M39.1667 49.9997C39.1667 52.9912 20.4915 55.4163 17.5 55.4163C14.5084 55.4163 6.66666 52.9912 6.66666 49.9997C6.66666 47.0081 14.5084 44.583 17.5 44.583C20.4915 44.583 39.1667 47.0081 39.1667 49.9997Z" fill="white"/>
<path d="M34.6922 34.6642C32.5768 36.7796 25.317 32.9494 23.2017 30.8341C21.0863 28.7187 17.2562 21.4589 19.3715 19.3436C21.4869 17.2282 28.7467 21.0584 30.862 23.1738C32.9773 25.2891 36.8075 32.5489 34.6922 34.6642Z" fill="white"/>
<path d="M55.4169 17.5002C55.4169 20.4917 52.9917 39.1669 50.0002 39.1669C47.0087 39.1669 44.5835 20.4917 44.5835 17.5002C44.5835 14.5087 47.0087 6.66687 50.0002 6.66687C52.9917 6.66687 55.4169 14.5087 55.4169 17.5002Z" fill="white"/>
<path d="M76.8235 30.8607C74.7081 32.976 67.4483 36.8062 65.333 34.6908C63.2177 32.5755 67.0478 25.3157 69.1632 23.2004C71.2785 21.085 78.5383 17.2549 80.6536 19.3702C82.769 21.4855 78.9388 28.7453 76.8235 30.8607Z" fill="white"/>
</svg>
