<svg width="150" height="150" viewBox="0 0 150 150" fill="none" xmlns="http://www.w3.org/2000/svg">
<path d="M98.1617 51.836C111.492 65.1664 120.794 79.8778 125.108 92.8198C129.46 105.874 128.587 116.562 122.573 122.576C116.56 128.589 105.871 129.462 92.8176 125.111C79.8756 120.797 65.1642 111.494 51.8337 98.1639C38.5032 84.8334 29.201 70.122 24.887 57.18C20.5357 44.126 21.4082 33.438 27.422 27.4242C33.4358 21.4104 44.1238 20.5379 57.1778 24.8892C70.1198 29.2033 84.8312 38.5055 98.1617 51.836Z" stroke="white" stroke-width="3.52941"/>
<path d="M51.8369 51.8364C65.1674 38.5059 79.8788 29.2037 92.8208 24.8897C105.875 20.5384 116.563 21.4108 122.577 27.4246C128.59 33.4385 129.463 44.1266 125.112 57.1804C120.798 70.1224 111.495 84.8338 98.1649 98.1643C84.8344 111.495 70.123 120.797 57.181 125.111C44.127 129.462 33.439 128.59 27.4252 122.576C21.4113 116.562 20.5389 105.874 24.8902 92.8203C29.2042 79.8783 38.5064 65.1669 51.8369 51.8364Z" stroke="white" stroke-width="3.52941"/>
<path d="M75 7.71777C83.5048 7.7178 91.6793 14.6584 97.833 26.9658C103.934 39.1677 107.759 56.1478 107.759 75C107.759 93.8521 103.934 110.832 97.833 123.034C91.6793 135.341 83.5048 142.282 75 142.282C66.4952 142.282 58.3207 135.341 52.167 123.034C46.0661 110.832 42.2412 93.8521 42.2412 75C42.2412 56.1478 46.0661 39.1677 52.167 26.9658C58.3207 14.6584 66.4952 7.71777 75 7.71777Z" stroke="white" stroke-width="3.52941"/>
<path d="M75 42.2412C93.8521 42.2412 110.832 46.0661 123.034 52.167C135.341 58.3207 142.282 66.4952 142.282 75C142.282 83.5048 135.341 91.6793 123.034 97.833C110.832 103.934 93.8521 107.759 75 107.759C56.1478 107.759 39.1677 103.934 26.9658 97.833C14.6584 91.6793 7.7178 83.5048 7.71777 75C7.71777 66.4952 14.6584 58.3207 26.9658 52.167C39.1677 46.0661 56.1478 42.2412 75 42.2412Z" stroke="white" stroke-width="3.52941"/>
<path d="M50.0294 81.2493C49.5986 80.719 49.3831 80.2468 49.3831 79.8325C49.3831 79.4016 49.7394 78.8382 50.452 78.1422C50.8663 77.7445 51.3054 77.5456 51.7694 77.5456C52.2334 77.5456 52.8797 77.9599 53.7082 78.7885C53.9402 79.0702 54.2716 79.3436 54.7025 79.6088C55.1334 79.8573 55.5311 79.9816 55.8956 79.9816C57.4368 79.9816 58.2073 79.3519 58.2073 78.0925C58.2073 77.7114 57.9919 77.3965 57.561 77.1479C57.1468 76.8828 56.6248 76.6922 55.9951 76.5762C55.3654 76.4602 54.6859 76.278 53.9568 76.0294C53.2277 75.7642 52.5482 75.4577 51.9185 75.1097C51.2888 74.7617 50.7586 74.2148 50.3277 73.4691C49.9134 72.7069 49.7063 71.7954 49.7063 70.7349C49.7063 69.2766 50.2448 68.0089 51.322 66.9318C52.4157 65.8381 53.8988 65.2912 55.7713 65.2912C56.7656 65.2912 57.6688 65.4238 58.4807 65.6889C59.3093 65.9375 59.881 66.1944 60.1959 66.4595L60.8173 66.9318C61.331 67.4123 61.5878 67.8183 61.5878 68.1498C61.5878 68.4812 61.389 68.9369 60.9913 69.5169C60.4279 70.3455 59.8479 70.7597 59.2513 70.7597C58.9033 70.7597 58.4725 70.594 57.9587 70.2626C57.909 70.2295 57.8096 70.1466 57.6605 70.014C57.5279 69.8815 57.4036 69.7737 57.2876 69.6909C56.9396 69.4755 56.4922 69.3678 55.9453 69.3678C55.4151 69.3678 54.9676 69.5003 54.6031 69.7655C54.2551 70.014 54.0811 70.3703 54.0811 70.8343C54.0811 71.2817 54.2882 71.6463 54.7025 71.928C55.1334 72.2097 55.6636 72.4003 56.2933 72.4997C56.923 72.5991 57.6108 72.7566 58.3565 72.972C59.1022 73.1708 59.7899 73.4194 60.4196 73.7177C61.0493 74.016 61.5713 74.538 61.9856 75.2837C62.4164 76.0128 62.6318 76.9159 62.6318 77.9931C62.6318 79.0702 62.4164 80.023 61.9856 80.8516C61.5547 81.6636 60.9913 82.2933 60.2953 82.7407C58.953 83.619 57.5196 84.0581 55.9951 84.0581C55.2162 84.0581 54.4788 83.967 53.7828 83.7847C53.0868 83.5859 52.5234 83.3456 52.0925 83.0639C51.2143 82.5336 50.6011 82.0199 50.2531 81.5227L50.0294 81.2493ZM64.5211 81.2493C64.0903 80.719 63.8749 80.2468 63.8749 79.8325C63.8749 79.4016 64.2311 78.8382 64.9437 78.1422C65.358 77.7445 65.7971 77.5456 66.2611 77.5456C66.7251 77.5456 67.3714 77.9599 68.2 78.7885C68.432 79.0702 68.7634 79.3436 69.1942 79.6088C69.6251 79.8573 70.0228 79.9816 70.3874 79.9816C71.9285 79.9816 72.699 79.3519 72.699 78.0925C72.699 77.7114 72.4836 77.3965 72.0528 77.1479C71.6385 76.8828 71.1165 76.6922 70.4868 76.5762C69.8571 76.4602 69.1777 76.278 68.4485 76.0294C67.7194 75.7642 67.04 75.4577 66.4103 75.1097C65.7806 74.7617 65.2503 74.2148 64.8194 73.4691C64.4051 72.7069 64.198 71.7954 64.198 70.7349C64.198 69.2766 64.7366 68.0089 65.8137 66.9318C66.9074 65.8381 68.3905 65.2912 70.2631 65.2912C71.2573 65.2912 72.1605 65.4238 72.9725 65.6889C73.801 65.9375 74.3727 66.1944 74.6876 66.4595L75.309 66.9318C75.8227 67.4123 76.0796 67.8183 76.0796 68.1498C76.0796 68.4812 75.8807 68.9369 75.483 69.5169C74.9196 70.3455 74.3396 70.7597 73.743 70.7597C73.395 70.7597 72.9642 70.594 72.4505 70.2626C72.4008 70.2295 72.3013 70.1466 72.1522 70.014C72.0196 69.8815 71.8953 69.7737 71.7793 69.6909C71.4313 69.4755 70.9839 69.3678 70.4371 69.3678C69.9068 69.3678 69.4594 69.5003 69.0948 69.7655C68.7468 70.014 68.5728 70.3703 68.5728 70.8343C68.5728 71.2817 68.7799 71.6463 69.1942 71.928C69.6251 72.2097 70.1554 72.4003 70.7851 72.4997C71.4148 72.5991 72.1025 72.7566 72.8482 72.972C73.5939 73.1708 74.2816 73.4194 74.9113 73.7177C75.541 74.016 76.063 74.538 76.4773 75.2837C76.9081 76.0128 77.1236 76.9159 77.1236 77.9931C77.1236 79.0702 76.9081 80.023 76.4773 80.8516C76.0464 81.6636 75.483 82.2933 74.787 82.7407C73.4447 83.619 72.0113 84.0581 70.4868 84.0581C69.7079 84.0581 68.9705 83.967 68.2745 83.7847C67.5785 83.5859 67.0151 83.3456 66.5843 83.0639C65.706 82.5336 65.0929 82.0199 64.7449 81.5227L64.5211 81.2493ZM98.1029 66.2855C98.2355 66.5341 98.3101 66.7578 98.3266 66.9566C98.3598 67.1555 98.3763 67.4455 98.3763 67.8266V81.6222C98.3763 82.7656 98.0615 83.4367 97.4318 83.6356C97.1169 83.735 96.7192 83.7847 96.2387 83.7847C95.7581 83.7847 95.377 83.7433 95.0952 83.6604C94.8135 83.5776 94.5981 83.4781 94.449 83.3621C94.2998 83.2461 94.1838 83.0804 94.101 82.865C94.0181 82.5833 93.9767 82.1524 93.9767 81.5725V73.2454C93.5624 73.7591 92.9576 74.5794 92.1621 75.7062C91.3667 76.8165 90.8613 77.5125 90.6459 77.7942C90.4304 78.0759 90.2813 78.2748 90.1984 78.3908C90.1156 78.4902 89.9084 78.6393 89.577 78.8382C89.2622 79.0205 88.9142 79.1116 88.533 79.1116C88.1685 79.1116 87.8288 79.0288 87.5139 78.8631C87.2156 78.6808 87.0002 78.5068 86.8676 78.3411L86.6688 78.0676C86.3374 77.6534 85.6828 76.7751 84.7051 75.4328C83.7274 74.074 83.1971 73.3448 83.1142 73.2454V81.6222C83.1142 82.0033 83.0977 82.2933 83.0645 82.4922C83.048 82.6744 82.9734 82.8816 82.8408 83.1136C82.5923 83.561 81.946 83.7847 80.902 83.7847C79.8911 83.7847 79.2614 83.561 79.0129 83.1136C78.8803 82.8816 78.7974 82.6662 78.7643 82.4673C78.7477 82.2684 78.7394 81.9702 78.7394 81.5725V67.7769C78.7394 67.3958 78.7477 67.1141 78.7643 66.9318C78.7974 66.7329 78.8803 66.5092 79.0129 66.2606C79.2614 65.8298 79.9077 65.6144 80.9517 65.6144C81.3991 65.6144 81.7803 65.6724 82.0951 65.7884C82.4265 65.8878 82.642 65.9955 82.7414 66.1115L82.8905 66.2606L88.533 73.668C91.3501 69.9395 93.231 67.4786 94.1755 66.2855C94.4572 65.8381 95.1201 65.6144 96.1641 65.6144C97.2246 65.6144 97.8709 65.8381 98.1029 66.2855Z" fill="white"/>
<circle cx="36.1774" cy="127.941" r="4.41176" fill="white"/>
<circle cx="36.1774" cy="127.941" r="4.41176" fill="url(#paint0_linear_266_823)"/>
<defs>
<linearGradient id="paint0_linear_266_823" x1="36.1774" y1="123.529" x2="36.1774" y2="132.353" gradientUnits="userSpaceOnUse">
<stop offset="0.0208333" stop-color="#7E3889" stop-opacity="0.75"/>
<stop offset="0.338542" stop-color="#7E3889" stop-opacity="0.9"/>
<stop offset="0.713542" stop-color="#7E3889" stop-opacity="0.9"/>
<stop offset="1" stop-color="#7E3889" stop-opacity="0.75"/>
</linearGradient>
</defs>
</svg>
