<svg width="243" height="120" viewBox="0 0 243 120" fill="none" xmlns="http://www.w3.org/2000/svg">
<path d="M145.471 28.2351C145.471 29.9244 141.042 31.2939 139.353 31.2939C137.664 31.2939 127.118 29.9244 127.118 28.2351C127.118 26.5458 137.664 25.1763 139.353 25.1763C141.042 25.1763 145.471 26.5458 145.471 28.2351Z" fill="white"/>
<path d="M138.296 45.546C137.102 46.7406 133.002 44.5776 131.807 43.3831C130.613 42.1886 128.45 38.0889 129.645 36.8944C130.839 35.6998 134.939 37.8627 136.133 39.0573C137.328 40.2518 139.491 44.3515 138.296 45.546Z" fill="white"/>
<path d="M124.059 46.5882C124.059 48.2775 122.689 52.7058 121 52.7058C119.311 52.7058 117.941 48.2775 117.941 46.5882C117.941 44.8989 119.311 34.3529 121 34.3529C122.689 34.3529 124.059 44.8989 124.059 46.5882Z" fill="white"/>
<path d="M110.178 43.368C108.984 44.5625 104.884 46.7254 103.689 45.5309C102.495 44.3363 104.658 40.2367 105.852 39.0421C107.047 37.8476 111.146 35.6847 112.341 36.8792C113.536 38.0738 111.373 42.1734 110.178 43.368Z" fill="white"/>
<path d="M114.882 28.2351C114.882 29.9244 104.336 31.2939 102.647 31.2939C100.958 31.2939 96.5294 29.9244 96.5294 28.2351C96.5294 26.5458 100.958 25.1763 102.647 25.1763C104.336 25.1763 114.882 26.5458 114.882 28.2351Z" fill="white"/>
<path d="M112.356 19.5751C111.161 20.7696 107.061 18.6067 105.867 17.4122C104.672 16.2176 102.509 12.118 103.704 10.9234C104.898 9.72887 108.998 11.8918 110.193 13.0863C111.387 14.2809 113.55 18.3805 112.356 19.5751Z" fill="white"/>
<path d="M124.059 9.88242C124.059 11.5718 122.689 22.1177 121 22.1177C119.311 22.1177 117.941 11.5718 117.941 9.88242C117.941 8.19308 119.311 3.76477 121 3.76477C122.689 3.76477 124.059 8.19308 124.059 9.88242Z" fill="white"/>
<path d="M136.147 17.4273C134.953 18.6218 130.853 20.7848 129.659 19.5902C128.464 18.3957 130.627 14.296 131.822 13.1015C133.016 11.9069 137.116 9.744 138.31 10.9385C139.505 12.1331 137.342 16.2327 136.147 17.4273Z" fill="white"/>
<path d="M2.26838 99.5993C1.38603 99.5993 0.852941 99.489 0.669118 99.2684C0.448529 99.0846 0.411765 98.6986 0.558824 98.1103C0.595588 97.9265 0.779412 97.0993 1.11029 95.6287C1.44118 94.1949 1.84559 92.4302 2.32353 90.3346C2.83824 88.2758 3.37132 86.0331 3.92279 83.6067C4.51103 81.1802 5.0625 78.9008 5.57721 76.7684C4.80515 76.842 4.23529 76.7868 3.86765 76.603C3.5 76.3824 3.31618 76.1067 3.31618 75.7758C3.35294 75.4081 3.55515 75.0405 3.92279 74.6728C4.32721 74.3052 4.89706 73.9927 5.63235 73.7353C5.77941 73.6618 6 73.5883 6.29412 73.5147C6.47794 72.8897 6.64338 72.2464 6.79044 71.5846C6.9375 71.0331 7.08456 70.4449 7.23162 69.8199C7.37868 69.1949 7.52574 68.5883 7.67279 68L11.5331 51.5111C11.7537 50.6655 12.0846 50.0405 12.5257 49.6361C13.0037 49.1949 13.8676 48.8272 15.1176 48.5331C16.1471 48.2758 16.864 48.1839 17.2684 48.2574C17.6728 48.2942 17.8566 48.4045 17.8199 48.5883C17.7096 48.9927 17.4338 49.967 16.9926 51.5111C16.5515 53.0552 16.0184 54.9486 15.3934 57.1912C14.8051 59.3971 14.1618 61.842 13.4632 64.5258C12.7647 67.1728 12.0846 69.8015 11.4228 72.4118C13.6287 72.0809 16.3125 71.8052 19.4743 71.5846C20.6875 71.4375 21.864 71.3456 23.0037 71.3089C24.1801 71.2721 25.3015 71.2721 26.3676 71.3089C26.8824 69.3236 27.3787 67.3383 27.8566 65.353C28.3713 63.3677 28.8493 61.5295 29.2904 59.8383C29.7316 58.1471 30.1176 56.6581 30.4485 55.3714C30.8162 54.0478 31.0919 53.0736 31.2757 52.4486C31.4963 51.75 31.6985 51.1802 31.8824 50.739C32.1029 50.2978 32.3419 49.9486 32.5993 49.6912C32.8934 49.4339 33.2243 49.25 33.5919 49.1397C33.9596 49.0295 34.3824 48.9375 34.8603 48.864C35.1176 48.864 35.4301 48.8456 35.7978 48.8089C36.0919 48.8089 36.4412 48.8089 36.8456 48.8089C37.25 48.7721 37.7096 48.7905 38.2243 48.864C36.8272 52.614 35.5221 56.4192 34.3088 60.2795C33.1324 64.103 32.0294 67.8346 31 71.4743C31.6618 71.5478 32.2316 71.603 32.7096 71.6397C33.2243 71.6765 33.6287 71.7317 33.9228 71.8052C34.8051 71.9522 35.3566 72.1912 35.5772 72.5221C35.8346 72.853 35.761 73.3309 35.3566 73.9559L34.6949 74.7831C34.4743 75.0772 34.1985 75.4265 33.8676 75.8309C33.5368 76.1986 33.114 76.6214 32.5993 77.0993C32.3051 76.989 31.9926 76.8787 31.6618 76.7684C31.3676 76.6581 31.0735 76.5478 30.7794 76.4375C30.4118 76.3272 30.0625 76.217 29.7316 76.1067C29.4743 76.989 29.2353 77.853 29.0147 78.6986C28.7941 79.5074 28.5919 80.3346 28.4081 81.1802C27.9669 82.9817 27.5441 84.8383 27.1397 86.75C26.8088 88.4045 26.4596 90.2243 26.0919 92.2096C25.761 94.2317 25.5037 96.217 25.3199 98.1655C25.0257 98.3125 24.7316 98.4045 24.4375 98.4412C24.1434 98.5147 23.886 98.5699 23.6654 98.6067C23.4081 98.6434 23.1507 98.6802 22.8934 98.717H22.8382H22.7279H22.6176C22.4706 98.717 22.3235 98.717 22.1765 98.717C22.0294 98.717 21.8824 98.6802 21.7353 98.6067C21.5515 98.5699 21.3676 98.5147 21.1838 98.4412C21 98.3677 20.8162 98.2942 20.6324 98.2206C20.4853 98.1839 20.3199 98.1103 20.136 98C20.4301 96.7868 20.6507 95.6471 20.7978 94.5809C20.9816 93.5147 21.1103 92.5772 21.1838 91.7684C21.2941 90.8125 21.3676 89.967 21.4044 89.2317C21.4412 88.2758 21.3309 87.228 21.0735 86.0883C20.8529 84.9486 20.4853 83.8272 19.9706 82.7243C19.4926 81.6214 18.886 80.592 18.1507 79.6361C17.4522 78.6802 16.6434 77.8714 15.7243 77.2096C14.8051 76.5846 13.9228 76.1802 13.0772 75.9964C12.2684 75.8125 11.4412 75.7574 10.5956 75.8309C10.3382 76.9339 10.0993 78 9.87868 79.0295C9.65809 80.0589 9.47426 81.0515 9.32721 82.0074C8.92279 84.1397 8.53676 86.217 8.16912 88.239C7.875 89.967 7.5625 91.75 7.23162 93.5883C6.9375 95.4633 6.71691 97.0625 6.56985 98.3861C5.98162 98.6802 5.43015 98.9008 4.91544 99.0478C4.40074 99.2317 3.94118 99.3603 3.53676 99.4339C3.09559 99.5442 2.67279 99.5993 2.26838 99.5993ZM24.1066 75.114C22.8199 74.967 21.5882 74.8934 20.4118 74.8934C19.2721 74.8567 18.261 74.8383 17.3787 74.8383C18.114 75.2427 18.7574 75.7758 19.3088 76.4375C19.8971 77.0993 20.5037 77.853 21.1287 78.6986C21.7169 79.4706 22.1949 80.3162 22.5625 81.2353C22.9301 82.1545 23.2426 83.0368 23.5 83.8824C23.7941 82.3383 24.1066 80.8309 24.4375 79.3603C24.7684 77.8897 25.0809 76.5111 25.375 75.2243C25.1544 75.1875 24.9338 75.1692 24.7132 75.1692C24.5294 75.1324 24.3272 75.114 24.1066 75.114ZM65.9632 78.2022C65.4485 78.9375 64.7868 79.8567 63.9779 80.9596C63.1691 82.0258 62.3235 83.1103 61.4412 84.2133C60.5956 85.2795 59.75 86.2721 58.9044 87.1912C58.0956 88.0736 57.4154 88.6986 56.864 89.0662C56.4963 89.2868 56.0735 89.4706 55.5956 89.6177C55.1176 89.7647 54.6213 89.8567 54.1066 89.8934C53.6287 89.9302 53.1691 89.8934 52.7279 89.7831C52.2868 89.7096 51.9007 89.5625 51.5699 89.342C51.239 89.0846 50.9632 88.717 50.7426 88.239C50.5588 87.8346 50.375 87.3015 50.1912 86.6397C50.0441 85.978 49.989 85.1508 50.0257 84.1581C49.1434 85.6287 48.1691 86.7684 47.1029 87.5772C46.0368 88.3493 45.0257 88.9192 44.0699 89.2868C42.9669 89.6912 41.864 89.9302 40.761 90.0037C40.2463 90.0037 39.6949 89.8199 39.1066 89.4522C38.5184 89.1214 38.0221 88.5883 37.6176 87.853C37.2132 87.0809 36.9559 86.1067 36.8456 84.9302C36.7353 83.717 36.8824 82.2831 37.2868 80.6287C37.8015 78.3861 38.6103 76.3456 39.7132 74.5074C40.8529 72.6692 42.0846 71.1067 43.4081 69.8199C44.7316 68.4964 46.0368 67.5037 47.3235 66.842C48.6103 66.1802 49.6765 65.8861 50.5221 65.9596C51.5147 66.1434 52.3235 66.4375 52.9485 66.842C53.4632 67.2096 53.7941 67.7611 53.9412 68.4964C54.125 69.1949 53.8309 70.1324 53.0588 71.3089C53.5735 71.1986 53.9963 71.125 54.3272 71.0883C54.6949 71.0515 54.9706 71.0331 55.1544 71.0331C55.375 71.0331 55.5221 71.0515 55.5956 71.0883C55.6324 71.1618 55.6507 71.3272 55.6507 71.5846C55.6507 71.8052 55.5956 72.228 55.4853 72.853C55.375 73.478 55.2096 74.3236 54.989 75.3897C54.7684 76.4559 54.4743 77.8346 54.1066 79.5258C54.0331 79.8567 53.9596 80.1692 53.886 80.4633C53.8493 80.7206 53.7941 80.9964 53.7206 81.2905C53.6838 81.5478 53.6287 81.8603 53.5551 82.228C53.4816 82.5956 53.3897 83.0552 53.2794 83.6067C53.2426 83.9375 53.2243 84.3052 53.2243 84.7096C53.261 85.0772 53.3346 85.4265 53.4449 85.7574C53.5551 86.0883 53.7206 86.364 53.9412 86.5846C54.1985 86.7684 54.5478 86.8603 54.989 86.8603C55.3566 86.8603 55.8346 86.6397 56.4228 86.1986C57.011 85.7206 57.636 85.1324 58.2978 84.4339C58.9596 83.6986 59.6397 82.9081 60.3382 82.0625C61.0735 81.1802 61.7537 80.3346 62.3787 79.5258C63.0037 78.717 63.5551 78 64.0331 77.375C64.5478 76.75 64.9154 76.2905 65.136 75.9964C65.4301 75.6655 65.7243 75.4817 66.0184 75.4449C66.3125 75.3714 66.5331 75.4449 66.6801 75.6655C66.8272 75.8861 66.8456 76.217 66.7353 76.6581C66.6618 77.0993 66.4044 77.614 65.9632 78.2022ZM49.8051 80.6287C49.989 79.8934 50.2096 79.0295 50.4669 78.0368C50.7243 77.0442 50.9449 76.0883 51.1287 75.1692C51.3125 74.25 51.4412 73.4964 51.5147 72.9081C51.625 72.2831 51.6066 71.989 51.4596 72.0258C51.2757 72.0625 51.0735 72.1177 50.8529 72.1912C50.6691 72.2647 50.4301 72.3199 50.136 72.3567C49.8419 72.3934 49.5478 72.4486 49.2537 72.5221C49.5478 71.9339 49.7132 71.4559 49.75 71.0883C49.8235 70.6839 49.8419 70.3714 49.8051 70.1508C49.7684 69.8934 49.6949 69.6912 49.5846 69.5442C49.1801 69.2133 48.4632 69.489 47.4338 70.3714C46.4412 71.217 45.2831 72.7978 43.9596 75.114C43.4081 76.0699 42.9669 77.0993 42.636 78.2022C42.3051 79.2684 42.0662 80.2795 41.9191 81.2353C41.8088 82.1912 41.7904 83.0368 41.864 83.7721C41.9375 84.4706 42.0846 84.9302 42.3051 85.1508C42.7096 85.5552 43.1691 85.7574 43.6838 85.7574C44.1985 85.7206 44.7132 85.5736 45.2279 85.3162C45.7794 85.0221 46.3125 84.6545 46.8272 84.2133C47.3787 83.7721 47.8566 83.3125 48.261 82.8346C48.7022 82.3567 49.0515 81.9155 49.3088 81.5111C49.6029 81.1067 49.7684 80.8125 49.8051 80.6287ZM69.1066 90.0589C67.7096 90.0589 66.5699 89.8383 65.6875 89.3971C64.8051 88.9559 64.1066 88.4228 63.5919 87.7978C63.114 87.1361 62.7647 86.4375 62.5441 85.7022C62.3603 84.9302 62.2684 84.2317 62.2684 83.6067C62.2684 82.5037 62.3603 81.3456 62.5441 80.1324C62.7279 78.8824 62.9485 77.7427 63.2059 76.7133C63.4632 75.6471 63.6838 74.7464 63.8676 74.0111C64.0882 73.2758 64.2353 72.8162 64.3088 72.6324C64.6397 71.5662 65.0625 70.6471 65.5772 69.875C66.1287 69.0662 66.8824 68.5147 67.8382 68.2206C68.2059 68.1471 68.5919 68.0736 68.9963 68C69.3272 67.9633 69.6581 67.9449 69.989 67.9449C70.3566 67.9449 70.6875 68 70.9816 68.1103C69.989 70.6471 69.1985 72.7611 68.6103 74.4522C68.0588 76.1434 67.636 77.5221 67.3419 78.5883C67.011 79.8015 66.8088 80.7758 66.7353 81.5111C66.5515 83.1655 66.6985 84.4155 67.1765 85.2611C67.6544 86.1067 68.6287 86.5295 70.0993 86.5295C71.0551 86.5295 71.9743 86.1802 72.8566 85.4817C73.739 84.7464 74.5478 83.8089 75.2831 82.6692C75.1728 82.0809 75.1176 81.4743 75.1176 80.8493C75.1176 79.6728 75.2096 78.5331 75.3934 77.4302C75.614 76.2905 75.8529 75.2427 76.1103 74.2868C76.4044 73.2942 76.6985 72.4118 76.9926 71.6397C77.3235 70.8677 77.5993 70.2611 77.8199 69.8199C78.2243 68.9375 78.5919 68.4045 78.9228 68.2206C79.2537 68 79.7868 67.8714 80.5221 67.8346C80.8162 67.7978 81.0551 67.7978 81.239 67.8346C81.4596 67.8346 81.6434 67.853 81.7904 67.8897C82.2316 68 82.4522 68.2206 82.4522 68.5515C82.4522 69.1397 82.4154 70.0221 82.3419 71.1986C82.2684 72.375 82.0478 73.5883 81.6801 74.8383C81.4228 75.8677 81.1654 76.75 80.9081 77.4853C80.6875 78.1839 80.4669 78.7905 80.2463 79.3052C80.0257 79.7831 79.8051 80.1875 79.5846 80.5184C79.364 80.8125 79.1618 81.0883 78.9779 81.3456C79.0515 82.4486 79.1434 83.3309 79.2537 83.9927C79.364 84.6545 79.4926 85.1692 79.6397 85.5368C79.8235 85.8677 80.0257 86.1067 80.2463 86.2537C80.5037 86.364 80.7794 86.4192 81.0735 86.4192C81.5882 86.4192 82.1949 86.1802 82.8934 85.7022C83.5919 85.1875 84.3088 84.5625 85.0441 83.8272C85.8162 83.0552 86.5699 82.228 87.3051 81.3456C88.0772 80.4265 88.7757 79.5625 89.4007 78.7537C90.0257 77.9449 90.5588 77.2464 91 76.6581C91.4412 76.0331 91.7169 75.6471 91.8272 75.5C92.0846 75.1692 92.3235 74.967 92.5441 74.8934C92.8015 74.8199 93.0037 74.8567 93.1507 75.0037C93.2978 75.114 93.3713 75.3162 93.3713 75.6103C93.4081 75.8677 93.3346 76.1618 93.1507 76.4927C92.4154 77.8897 91.4963 79.3787 90.3934 80.9596C89.3272 82.5037 88.1691 83.9375 86.9191 85.2611C85.7059 86.5846 84.4743 87.6875 83.2243 88.5699C81.9743 89.4522 80.7978 89.8934 79.6949 89.8934C78.7022 89.8934 77.9118 89.5625 77.3235 88.9008C76.7721 88.2022 76.2941 87.2096 75.8897 85.9228C75.0441 87.2464 74.0515 88.2758 72.9118 89.0111C71.7721 89.7096 70.5037 90.0589 69.1066 90.0589ZM103.298 97.0625C103.114 97.9449 102.875 99.0478 102.581 100.371C102.324 101.695 102.011 103.092 101.643 104.563C101.312 106.033 100.908 107.485 100.43 108.919C99.989 110.39 99.4926 111.695 98.9412 112.835C98.3897 114.011 97.7831 114.967 97.1213 115.702C96.4596 116.438 95.7243 116.805 94.9154 116.805C93.7022 116.805 92.6544 116.438 91.7721 115.702C90.9265 115.004 90.2096 114.103 89.6213 113C89.0331 111.934 88.6103 110.776 88.3529 109.526C88.0588 108.276 87.9118 107.118 87.9118 106.052C87.9118 104.581 88.0404 103.349 88.2978 102.357C88.5551 101.401 88.9963 100.482 89.6213 99.5993C90.2831 98.717 91.1654 97.7795 92.2684 96.7868C93.3713 95.7942 94.7868 94.5625 96.5147 93.092C97.3603 92.3567 98.1691 91.6581 98.9412 90.9964C99.7132 90.3346 100.449 89.728 101.147 89.1765C101.331 88.4412 101.496 87.7611 101.643 87.1361C101.827 86.4743 101.974 85.8861 102.085 85.3714C101.129 86.6581 99.9706 87.7427 98.6103 88.625C97.2868 89.5074 95.761 89.9486 94.0331 89.9486C92.4522 89.9486 91.1654 89.25 90.1728 87.853C89.2169 86.4192 88.739 84.3236 88.739 81.5662C88.739 80.2059 88.9963 78.6434 89.511 76.8787C90.0257 75.114 90.761 73.4596 91.7169 71.9155C92.6728 70.3714 93.8493 69.0662 95.2463 68C96.6434 66.9339 98.2059 66.4008 99.9338 66.4008C100.743 66.4008 101.441 66.603 102.029 67.0074C102.618 67.4118 103.114 67.9265 103.518 68.5515C103.923 69.1397 104.235 69.7831 104.456 70.4817C104.676 71.1434 104.842 71.7684 104.952 72.3567C105.026 72.1361 105.081 71.9155 105.118 71.6949C105.154 71.4375 105.21 71.217 105.283 71.0331C105.651 69.7831 106.055 68.9375 106.496 68.4964C106.974 68.0184 107.673 67.7795 108.592 67.7795C109.107 67.7795 109.529 67.8714 109.86 68.0552C110.228 68.239 110.412 68.4045 110.412 68.5515C110.228 68.9559 110.081 69.2684 109.971 69.489C109.86 69.7096 109.75 69.9486 109.64 70.2059C109.529 70.4265 109.419 70.7206 109.309 71.0883C109.199 71.4559 109.051 71.989 108.868 72.6875C108.794 72.9449 108.647 73.5515 108.426 74.5074C108.243 75.4265 107.985 76.5295 107.654 77.8162C107.36 79.103 107.029 80.5184 106.662 82.0625C106.331 83.6067 106 85.114 105.669 86.5846C106.699 85.9964 107.765 85.2795 108.868 84.4339C109.971 83.5883 111.018 82.7243 112.011 81.842C113.004 80.9596 113.886 80.1324 114.658 79.3603C115.43 78.5515 116 77.8897 116.368 77.375C116.662 76.9339 116.993 76.6214 117.36 76.4375C117.728 76.2537 118.04 76.1986 118.298 76.2721C118.592 76.3089 118.757 76.4743 118.794 76.7684C118.868 77.0258 118.757 77.3934 118.463 77.8714C117.618 79.2317 116.588 80.5552 115.375 81.842C114.162 83.092 112.912 84.2684 111.625 85.3714C110.375 86.4375 109.143 87.3934 107.93 88.239C106.754 89.0478 105.743 89.7096 104.897 90.2243C104.529 91.8787 104.217 93.2206 103.96 94.25C103.702 95.2795 103.482 96.217 103.298 97.0625ZM96.3493 86.1986C97.1213 86.1986 97.8382 85.9964 98.5 85.592C99.1985 85.1875 99.8235 84.728 100.375 84.2133C100.926 83.6618 101.386 83.1103 101.754 82.5589C102.121 82.0074 102.397 81.5662 102.581 81.2353C102.728 80.9045 102.893 80.4633 103.077 79.9118C103.298 79.3603 103.463 78.8272 103.574 78.3125C103.684 77.7978 103.721 77.3383 103.684 76.9339C103.684 76.5295 103.555 76.3089 103.298 76.2721C103.077 76.2353 102.893 76.0883 102.746 75.8309C102.636 75.5736 102.544 75.2795 102.471 74.9486C102.397 74.6177 102.342 74.2868 102.305 73.9559C102.305 73.625 102.287 73.3309 102.25 73.0736C102.066 71.7868 101.754 70.8493 101.312 70.2611C100.871 69.6728 100.375 69.3787 99.8235 69.3787C98.9044 69.3787 98.0221 69.7464 97.1765 70.4817C96.3676 71.217 95.6324 72.1728 94.9706 73.3493C94.3456 74.489 93.8493 75.7574 93.4816 77.1545C93.114 78.5147 92.9301 79.8199 92.9301 81.0699C92.9301 82.614 93.1507 83.864 93.5919 84.8199C94.0331 85.739 94.9522 86.1986 96.3493 86.1986ZM93.8125 111.787C94.5478 111.787 95.136 111.235 95.5772 110.132C96.0551 109.066 96.5515 107.596 97.0662 105.721C97.1765 105.279 97.3235 104.636 97.5074 103.79C97.7279 102.982 97.9669 102.044 98.2243 100.978C98.5184 99.9118 98.8125 98.7537 99.1066 97.5037C99.4007 96.2905 99.7132 95.0589 100.044 93.8089C99.75 94.0662 99.4375 94.3236 99.1066 94.5809C98.8125 94.875 98.5 95.2059 98.1691 95.5736C97.3603 96.3456 96.5699 97.0809 95.7978 97.7795C95.0625 98.5147 94.4007 99.2684 93.8125 100.04C93.2243 100.849 92.7463 101.713 92.3787 102.632C92.0478 103.552 91.8824 104.618 91.8824 105.831C91.8824 107.044 91.9191 108.037 91.9926 108.809C92.1029 109.581 92.2316 110.188 92.3787 110.629C92.5625 111.07 92.7647 111.364 92.9853 111.511C93.2426 111.695 93.5184 111.787 93.8125 111.787ZM139.695 77.7059C138.592 79.3236 137.342 80.9045 135.945 82.4486C134.548 83.9559 133.059 85.3162 131.478 86.5295C129.934 87.7059 128.335 88.6618 126.68 89.3971C125.062 90.1324 123.482 90.5 121.937 90.5C121.129 90.5 120.246 90.2978 119.29 89.8934C118.371 89.5258 117.526 88.9375 116.754 88.1287C115.982 87.3199 115.357 86.2721 114.879 84.9853C114.437 83.6986 114.309 82.1361 114.493 80.2978C114.64 78.7905 115.099 77.2096 115.871 75.5552C116.68 73.864 117.654 72.3199 118.794 70.9228C119.971 69.5258 121.276 68.3677 122.71 67.4486C124.18 66.5295 125.651 66.0699 127.121 66.0699C128.518 66.0699 129.529 66.4192 130.154 67.1177C130.779 67.8162 131.055 68.6802 130.982 69.7096C130.871 70.8493 130.54 71.8971 129.989 72.853C129.474 73.8089 128.849 74.6728 128.114 75.4449C127.379 76.217 126.588 76.9155 125.743 77.5405C124.934 78.1655 124.162 78.7353 123.426 79.25C122.618 79.8015 121.846 80.3346 121.11 80.8493C120.375 81.3272 119.732 81.7684 119.18 82.1728C119.217 83.092 119.382 83.864 119.676 84.489C119.971 85.114 120.338 85.6287 120.779 86.0331C121.221 86.4008 121.717 86.6765 122.268 86.8603C122.857 87.0074 123.445 87.0809 124.033 87.0809C125.283 87.0809 126.588 86.6949 127.949 85.9228C129.309 85.114 130.632 84.1581 131.919 83.0552C133.243 81.9155 134.456 80.739 135.559 79.5258C136.699 78.3125 137.636 77.2647 138.371 76.3824C138.629 76.0883 138.886 75.9228 139.143 75.8861C139.437 75.8125 139.658 75.8493 139.805 75.9964C139.989 76.1067 140.081 76.3272 140.081 76.6581C140.081 76.9522 139.952 77.3015 139.695 77.7059ZM125.577 69.2133C125.136 69.2133 124.603 69.4339 123.978 69.875C123.39 70.3162 122.801 70.9596 122.213 71.8052C121.625 72.614 121.074 73.625 120.559 74.8383C120.044 76.0147 119.658 77.375 119.401 78.9192C119.842 78.5883 120.32 78.2574 120.835 77.9265C121.349 77.5589 121.864 77.1728 122.379 76.7684C123.96 75.5552 125.062 74.489 125.687 73.5699C126.312 72.6508 126.662 71.8603 126.735 71.1986C126.809 70.5 126.735 70.0037 126.515 69.7096C126.294 69.3787 125.982 69.2133 125.577 69.2133ZM151.772 96.2905C151.441 96.0699 151.276 95.8309 151.276 95.5736C151.239 95.3162 151.294 95.0589 151.441 94.8015C151.588 94.5074 151.809 94.2133 152.103 93.9192C152.397 93.6618 152.746 93 153.151 91.9339C153.555 90.9045 153.978 89.6545 154.419 88.1839C154.897 86.6765 155.357 85.0405 155.798 83.2758C156.276 81.5111 156.717 79.7831 157.121 78.092C157.526 76.4008 157.875 74.8383 158.169 73.4045C158.463 71.9706 158.684 70.8309 158.831 69.9853C159.015 68.9559 159.217 67.8346 159.437 66.6214C159.621 65.5552 159.824 64.3236 160.044 62.9265C160.265 61.4927 160.467 59.9118 160.651 58.1839L165.062 56.1986C165.687 55.9045 166.129 55.978 166.386 56.4192C166.643 56.8236 166.643 57.6875 166.386 59.0111C166.276 59.6728 166.074 60.7574 165.779 62.2647C165.485 63.7353 165.136 65.3714 164.732 67.1728C164.364 68.9375 163.96 70.7574 163.518 72.6324C163.114 74.4706 162.71 76.1067 162.305 77.5405C161.937 78.9008 161.515 80.4633 161.037 82.228C160.191 85.2427 159.015 89.3603 157.507 94.5809C158.022 95.4633 158.978 95.9045 160.375 95.9045C161.919 95.9045 163.702 95.3162 165.724 94.1397C167.783 92.9633 169.768 91.1986 171.68 88.8456C173.592 86.4927 175.265 83.5515 176.699 80.0221C178.169 76.4559 179.088 72.3015 179.456 67.5589C179.64 64.9853 179.511 62.7243 179.07 60.7758C178.629 58.8272 177.949 57.1912 177.029 55.8677C176.147 54.5442 175.044 53.5515 173.721 52.8897C172.434 52.228 171 51.8971 169.419 51.8971C165.706 51.8971 161.864 53.4412 157.893 56.5295L157.618 51.9522C158.574 50.8861 159.658 50.0772 160.871 49.5258C162.121 48.9375 163.279 48.4964 164.346 48.2022C165.596 47.8714 166.864 47.6875 168.151 47.6508C170.504 47.6508 172.765 48.1103 174.934 49.0295C177.14 49.9118 179.033 51.2721 180.614 53.1103C182.232 54.9486 183.463 57.2647 184.309 60.0589C185.154 62.8162 185.449 66.0515 185.191 69.7647C185.044 71.8971 184.603 74.1214 183.868 76.4375C183.169 78.717 182.232 80.9596 181.055 83.1655C179.915 85.3714 178.555 87.467 176.974 89.4522C175.393 91.4375 173.665 93.1655 171.79 94.6361C169.915 96.1434 167.912 97.3199 165.779 98.1655C163.647 99.0478 161.441 99.489 159.162 99.489C158.463 99.4522 157.71 99.3236 156.901 99.103C156.202 98.9192 155.412 98.6067 154.529 98.1655C153.647 97.7243 152.728 97.0993 151.772 96.2905ZM212.268 77.7059C211.165 79.3236 209.915 80.9045 208.518 82.4486C207.121 83.9559 205.632 85.3162 204.051 86.5295C202.507 87.7059 200.908 88.6618 199.254 89.3971C197.636 90.1324 196.055 90.5 194.511 90.5C193.702 90.5 192.82 90.2978 191.864 89.8934C190.945 89.5258 190.099 88.9375 189.327 88.1287C188.555 87.3199 187.93 86.2721 187.452 84.9853C187.011 83.6986 186.882 82.1361 187.066 80.2978C187.213 78.7905 187.673 77.2096 188.445 75.5552C189.254 73.864 190.228 72.3199 191.368 70.9228C192.544 69.5258 193.849 68.3677 195.283 67.4486C196.754 66.5295 198.224 66.0699 199.695 66.0699C201.092 66.0699 202.103 66.4192 202.728 67.1177C203.353 67.8162 203.629 68.6802 203.555 69.7096C203.445 70.8493 203.114 71.8971 202.563 72.853C202.048 73.8089 201.423 74.6728 200.688 75.4449C199.952 76.217 199.162 76.9155 198.316 77.5405C197.507 78.1655 196.735 78.7353 196 79.25C195.191 79.8015 194.419 80.3346 193.684 80.8493C192.949 81.3272 192.305 81.7684 191.754 82.1728C191.79 83.092 191.956 83.864 192.25 84.489C192.544 85.114 192.912 85.6287 193.353 86.0331C193.794 86.4008 194.29 86.6765 194.842 86.8603C195.43 87.0074 196.018 87.0809 196.607 87.0809C197.857 87.0809 199.162 86.6949 200.522 85.9228C201.882 85.114 203.206 84.1581 204.493 83.0552C205.816 81.9155 207.029 80.739 208.132 79.5258C209.272 78.3125 210.21 77.2647 210.945 76.3824C211.202 76.0883 211.46 75.9228 211.717 75.8861C212.011 75.8125 212.232 75.8493 212.379 75.9964C212.563 76.1067 212.654 76.3272 212.654 76.6581C212.654 76.9522 212.526 77.3015 212.268 77.7059ZM198.151 69.2133C197.71 69.2133 197.176 69.4339 196.551 69.875C195.963 70.3162 195.375 70.9596 194.787 71.8052C194.199 72.614 193.647 73.625 193.132 74.8383C192.618 76.0147 192.232 77.375 191.974 78.9192C192.415 78.5883 192.893 78.2574 193.408 77.9265C193.923 77.5589 194.438 77.1728 194.952 76.7684C196.533 75.5552 197.636 74.489 198.261 73.5699C198.886 72.6508 199.235 71.8603 199.309 71.1986C199.382 70.5 199.309 70.0037 199.088 69.7096C198.868 69.3787 198.555 69.2133 198.151 69.2133ZM224.456 79.3603C223.5 80.7574 222.507 82.1177 221.478 83.4412C220.485 84.7647 219.511 85.9596 218.555 87.0258C217.636 88.0552 216.772 88.8824 215.963 89.5074C215.191 90.1692 214.566 90.5 214.088 90.5C212.949 90.5 212.011 89.967 211.276 88.9008C210.577 87.7978 210.026 86.4559 209.621 84.875C209.254 83.2574 209.015 81.5478 208.904 79.7464C208.831 77.9081 208.849 76.2721 208.96 74.8383C209.107 73.4045 209.272 72.2647 209.456 71.4192C209.64 70.5368 209.86 69.8567 210.118 69.3787C210.412 68.9008 210.743 68.5515 211.11 68.3309C211.515 68.1103 212.011 67.9265 212.599 67.7795C212.857 67.7059 213.151 67.6508 213.482 67.614C213.812 67.5772 214.107 67.5956 214.364 67.6692C214.658 67.7059 214.879 67.8162 215.026 68C215.173 68.1839 215.191 68.4596 215.081 68.8272C215.007 69.1581 214.879 69.6545 214.695 70.3162C214.548 70.9412 214.382 71.6581 214.199 72.467C214.015 73.2758 213.831 74.1214 213.647 75.0037C213.5 75.8861 213.39 76.7317 213.316 77.5405C213.206 78.9375 213.206 80.1692 213.316 81.2353C213.426 82.2647 213.592 83.1471 213.812 83.8824C214.033 84.5809 214.272 85.114 214.529 85.4817C214.787 85.8493 214.989 86.0331 215.136 86.0331C215.32 86.0331 215.651 85.7942 216.129 85.3162C216.643 84.8015 217.213 84.1397 217.838 83.3309C218.5 82.5221 219.18 81.5846 219.879 80.5184C220.614 79.4522 221.294 78.3493 221.919 77.2096C221.699 76.6214 221.607 75.9228 221.643 75.114C221.754 73.864 222.029 72.7427 222.471 71.75C222.912 70.7206 223.408 69.8567 223.96 69.1581C224.548 68.4596 225.136 67.9265 225.724 67.5589C226.349 67.1545 226.901 66.9522 227.379 66.9522C228.335 66.9522 228.923 67.2096 229.143 67.7243C229.401 68.2022 229.493 68.6986 229.419 69.2133C229.346 69.9853 228.996 71.0515 228.371 72.4118C227.783 73.7353 227.011 75.1875 226.055 76.7684C226.239 76.842 226.441 76.9155 226.662 76.989C226.882 77.0625 227.14 77.0993 227.434 77.0993C228.684 77.0993 229.805 76.9522 230.798 76.6581C231.827 76.364 232.71 76.0147 233.445 75.6103C234.217 75.2059 234.86 74.7831 235.375 74.342C235.926 73.864 236.368 73.478 236.699 73.1839C236.919 72.9633 237.14 72.853 237.36 72.853C237.581 72.853 237.765 72.9081 237.912 73.0184C238.059 73.1287 238.132 73.2942 238.132 73.5147C238.132 73.7353 238.022 73.9743 237.801 74.2317C236.478 75.8493 234.86 77.1545 232.949 78.1471C231.074 79.1397 228.868 79.6361 226.331 79.6361C226.11 79.6361 225.835 79.6177 225.504 79.5809C225.173 79.5442 224.824 79.4706 224.456 79.3603Z" fill="white"/>
<path d="M118.287 112.867H119.61C119.541 113.501 119.36 114.069 119.066 114.57C118.772 115.071 118.356 115.468 117.818 115.762C117.28 116.052 116.609 116.197 115.805 116.197C115.217 116.197 114.682 116.086 114.199 115.866C113.721 115.645 113.31 115.333 112.965 114.928C112.62 114.519 112.354 114.03 112.165 113.46C111.982 112.886 111.89 112.247 111.89 111.544V110.544C111.89 109.841 111.982 109.205 112.165 108.635C112.354 108.06 112.623 107.568 112.972 107.159C113.326 106.75 113.751 106.436 114.247 106.215C114.744 105.994 115.302 105.884 115.922 105.884C116.681 105.884 117.322 106.027 117.846 106.312C118.369 106.597 118.776 106.992 119.066 107.497C119.36 107.998 119.541 108.58 119.61 109.241H118.287C118.222 108.773 118.103 108.37 117.928 108.035C117.754 107.695 117.506 107.433 117.184 107.249C116.862 107.065 116.442 106.973 115.922 106.973C115.477 106.973 115.084 107.058 114.744 107.228C114.408 107.398 114.125 107.64 113.896 107.952C113.67 108.265 113.5 108.639 113.386 109.076C113.271 109.512 113.213 109.997 113.213 110.53V111.544C113.213 112.035 113.264 112.497 113.365 112.929C113.471 113.361 113.629 113.74 113.841 114.067C114.052 114.393 114.321 114.65 114.647 114.839C114.973 115.023 115.359 115.114 115.805 115.114C116.37 115.114 116.821 115.025 117.156 114.846C117.492 114.666 117.744 114.409 117.915 114.074C118.089 113.738 118.213 113.336 118.287 112.867ZM121.8 109.772V116.059H120.524V108.6H121.765L121.8 109.772ZM124.13 108.559L124.123 109.744C124.017 109.722 123.916 109.708 123.819 109.703C123.727 109.694 123.622 109.689 123.502 109.689C123.208 109.689 122.949 109.735 122.723 109.827C122.498 109.919 122.307 110.048 122.151 110.213C121.995 110.379 121.871 110.576 121.779 110.806C121.692 111.031 121.634 111.279 121.607 111.551L121.248 111.757C121.248 111.307 121.292 110.884 121.379 110.489C121.471 110.094 121.611 109.744 121.8 109.441C121.988 109.133 122.227 108.894 122.517 108.724C122.811 108.55 123.16 108.462 123.564 108.462C123.656 108.462 123.762 108.474 123.881 108.497C124.001 108.515 124.084 108.536 124.13 108.559ZM128.725 114.784V110.944C128.725 110.65 128.665 110.395 128.545 110.179C128.431 109.958 128.256 109.788 128.022 109.669C127.787 109.549 127.498 109.489 127.153 109.489C126.831 109.489 126.549 109.545 126.305 109.655C126.066 109.765 125.878 109.91 125.74 110.089C125.607 110.268 125.54 110.461 125.54 110.668H124.265C124.265 110.402 124.334 110.137 124.472 109.875C124.609 109.614 124.807 109.377 125.064 109.165C125.326 108.949 125.639 108.779 126.002 108.655C126.369 108.527 126.778 108.462 127.229 108.462C127.771 108.462 128.249 108.554 128.663 108.738C129.081 108.922 129.407 109.2 129.642 109.572C129.881 109.94 130 110.402 130 110.958V114.432C130 114.68 130.021 114.944 130.062 115.225C130.108 115.505 130.175 115.746 130.262 115.949V116.059H128.932C128.867 115.912 128.817 115.716 128.78 115.473C128.743 115.225 128.725 114.995 128.725 114.784ZM128.945 111.537L128.959 112.433H127.67C127.307 112.433 126.983 112.463 126.698 112.523C126.413 112.578 126.174 112.663 125.981 112.778C125.788 112.892 125.641 113.037 125.54 113.212C125.439 113.382 125.388 113.582 125.388 113.812C125.388 114.046 125.441 114.26 125.547 114.453C125.653 114.646 125.811 114.8 126.023 114.915C126.239 115.025 126.503 115.08 126.815 115.08C127.206 115.08 127.551 114.997 127.849 114.832C128.148 114.666 128.385 114.464 128.559 114.225C128.739 113.986 128.835 113.754 128.849 113.529L129.393 114.142C129.361 114.335 129.274 114.549 129.131 114.784C128.989 115.018 128.798 115.243 128.559 115.459C128.325 115.671 128.045 115.847 127.718 115.99C127.397 116.128 127.034 116.197 126.629 116.197C126.124 116.197 125.68 116.098 125.299 115.9C124.922 115.703 124.628 115.438 124.416 115.108C124.21 114.772 124.106 114.398 124.106 113.984C124.106 113.584 124.184 113.233 124.341 112.929C124.497 112.621 124.722 112.366 125.016 112.164C125.31 111.957 125.664 111.801 126.078 111.695C126.491 111.59 126.953 111.537 127.463 111.537H128.945ZM133.203 116.059H131.927V107.814C131.927 107.277 132.024 106.824 132.217 106.456C132.415 106.084 132.697 105.804 133.065 105.615C133.432 105.422 133.869 105.326 134.375 105.326C134.522 105.326 134.669 105.335 134.816 105.353C134.967 105.372 135.114 105.399 135.257 105.436L135.188 106.477C135.091 106.454 134.981 106.438 134.857 106.429C134.738 106.42 134.618 106.415 134.499 106.415C134.227 106.415 133.993 106.47 133.795 106.58C133.602 106.686 133.455 106.842 133.354 107.049C133.253 107.256 133.203 107.511 133.203 107.814V116.059ZM134.788 108.6V109.579H130.749V108.6H134.788ZM138.625 108.6V109.579H134.592V108.6H138.625ZM135.957 106.787H137.233V114.211C137.233 114.464 137.272 114.655 137.35 114.784C137.428 114.912 137.529 114.997 137.653 115.039C137.777 115.08 137.91 115.101 138.053 115.101C138.159 115.101 138.269 115.091 138.384 115.073C138.503 115.05 138.593 115.032 138.653 115.018L138.659 116.059C138.558 116.091 138.425 116.121 138.26 116.148C138.099 116.181 137.903 116.197 137.674 116.197C137.361 116.197 137.074 116.135 136.812 116.011C136.55 115.887 136.341 115.68 136.185 115.39C136.033 115.096 135.957 114.701 135.957 114.205V106.787ZM140.801 108.6V116.059H139.518V108.6H140.801ZM139.422 106.622C139.422 106.415 139.484 106.24 139.608 106.098C139.737 105.955 139.925 105.884 140.173 105.884C140.417 105.884 140.603 105.955 140.732 106.098C140.865 106.24 140.932 106.415 140.932 106.622C140.932 106.819 140.865 106.989 140.732 107.132C140.603 107.27 140.417 107.339 140.173 107.339C139.925 107.339 139.737 107.27 139.608 107.132C139.484 106.989 139.422 106.819 139.422 106.622ZM143.417 110.193V116.059H142.142V108.6H143.348L143.417 110.193ZM143.114 112.047L142.583 112.026C142.588 111.516 142.664 111.045 142.811 110.613C142.958 110.176 143.165 109.797 143.431 109.476C143.698 109.154 144.015 108.906 144.382 108.731C144.755 108.552 145.166 108.462 145.616 108.462C145.984 108.462 146.315 108.513 146.609 108.614C146.903 108.71 147.153 108.867 147.36 109.083C147.572 109.299 147.733 109.579 147.843 109.924C147.953 110.264 148.008 110.68 148.008 111.171V116.059H146.726V111.158C146.726 110.767 146.669 110.455 146.554 110.22C146.439 109.981 146.271 109.809 146.051 109.703C145.83 109.593 145.559 109.538 145.237 109.538C144.92 109.538 144.631 109.604 144.369 109.738C144.111 109.871 143.888 110.055 143.7 110.289C143.516 110.523 143.371 110.792 143.266 111.096C143.165 111.394 143.114 111.711 143.114 112.047ZM154.072 108.6H155.23V115.9C155.23 116.557 155.097 117.118 154.83 117.582C154.563 118.046 154.191 118.398 153.713 118.637C153.24 118.881 152.693 119.002 152.073 119.002C151.815 119.002 151.512 118.961 151.163 118.878C150.818 118.8 150.478 118.665 150.142 118.472C149.812 118.283 149.534 118.028 149.308 117.706L149.977 116.948C150.29 117.325 150.616 117.587 150.956 117.734C151.301 117.881 151.641 117.955 151.976 117.955C152.381 117.955 152.73 117.879 153.024 117.727C153.318 117.575 153.545 117.35 153.706 117.051C153.872 116.757 153.954 116.394 153.954 115.962V110.241L154.072 108.6ZM148.936 112.412V112.267C148.936 111.698 149.003 111.181 149.136 110.716C149.274 110.248 149.469 109.846 149.722 109.51C149.979 109.175 150.29 108.917 150.653 108.738C151.016 108.554 151.425 108.462 151.88 108.462C152.348 108.462 152.757 108.545 153.107 108.71C153.46 108.871 153.759 109.108 154.003 109.421C154.251 109.728 154.446 110.101 154.589 110.537C154.731 110.974 154.83 111.468 154.885 112.019V112.654C154.835 113.2 154.736 113.692 154.589 114.129C154.446 114.565 154.251 114.938 154.003 115.245C153.759 115.553 153.46 115.79 153.107 115.955C152.753 116.116 152.339 116.197 151.866 116.197C151.42 116.197 151.016 116.102 150.653 115.914C150.294 115.726 149.986 115.461 149.729 115.121C149.472 114.781 149.274 114.381 149.136 113.922C149.003 113.458 148.936 112.955 148.936 112.412ZM150.211 112.267V112.412C150.211 112.784 150.248 113.134 150.322 113.46C150.4 113.786 150.517 114.074 150.673 114.322C150.834 114.57 151.039 114.765 151.287 114.908C151.535 115.046 151.831 115.114 152.176 115.114C152.599 115.114 152.948 115.025 153.224 114.846C153.5 114.666 153.718 114.43 153.879 114.136C154.044 113.841 154.173 113.522 154.265 113.177V111.516C154.214 111.263 154.136 111.02 154.03 110.785C153.929 110.546 153.796 110.335 153.631 110.151C153.47 109.963 153.27 109.813 153.031 109.703C152.792 109.593 152.511 109.538 152.19 109.538C151.841 109.538 151.54 109.611 151.287 109.758C151.039 109.901 150.834 110.098 150.673 110.351C150.517 110.599 150.4 110.889 150.322 111.22C150.248 111.546 150.211 111.895 150.211 112.267ZM162.166 116.059H160.07L160.084 114.977H162.166C162.883 114.977 163.48 114.827 163.958 114.529C164.436 114.225 164.795 113.802 165.034 113.26C165.277 112.713 165.399 112.074 165.399 111.344V110.73C165.399 110.156 165.33 109.646 165.192 109.2C165.054 108.75 164.852 108.37 164.585 108.063C164.319 107.75 163.993 107.513 163.607 107.352C163.225 107.192 162.786 107.111 162.29 107.111H160.029V106.022H162.29C162.947 106.022 163.547 106.132 164.089 106.353C164.631 106.569 165.098 106.884 165.489 107.297C165.884 107.706 166.187 108.203 166.398 108.786C166.61 109.365 166.716 110.018 166.716 110.744V111.344C166.716 112.07 166.61 112.725 166.398 113.308C166.187 113.887 165.881 114.381 165.482 114.79C165.086 115.199 164.608 115.514 164.048 115.735C163.492 115.951 162.864 116.059 162.166 116.059ZM160.78 106.022V116.059H159.45V106.022H160.78ZM169.201 108.6V116.059H167.919V108.6H169.201ZM167.823 106.622C167.823 106.415 167.885 106.24 168.009 106.098C168.137 105.955 168.326 105.884 168.574 105.884C168.818 105.884 169.004 105.955 169.132 106.098C169.266 106.24 169.332 106.415 169.332 106.622C169.332 106.819 169.266 106.989 169.132 107.132C169.004 107.27 168.818 107.339 168.574 107.339C168.326 107.339 168.137 107.27 168.009 107.132C167.885 106.989 167.823 106.819 167.823 106.622ZM175.375 108.6H176.533V115.9C176.533 116.557 176.4 117.118 176.133 117.582C175.867 118.046 175.494 118.398 175.017 118.637C174.543 118.881 173.996 119.002 173.376 119.002C173.119 119.002 172.815 118.961 172.466 118.878C172.121 118.8 171.781 118.665 171.446 118.472C171.115 118.283 170.837 118.028 170.612 117.706L171.28 116.948C171.593 117.325 171.919 117.587 172.259 117.734C172.604 117.881 172.944 117.955 173.279 117.955C173.684 117.955 174.033 117.879 174.327 117.727C174.621 117.575 174.849 117.35 175.01 117.051C175.175 116.757 175.258 116.394 175.258 115.962V110.241L175.375 108.6ZM170.239 112.412V112.267C170.239 111.698 170.306 111.181 170.439 110.716C170.577 110.248 170.773 109.846 171.025 109.51C171.283 109.175 171.593 108.917 171.956 108.738C172.319 108.554 172.728 108.462 173.183 108.462C173.652 108.462 174.061 108.545 174.41 108.71C174.764 108.871 175.062 109.108 175.306 109.421C175.554 109.728 175.75 110.101 175.892 110.537C176.034 110.974 176.133 111.468 176.188 112.019V112.654C176.138 113.2 176.039 113.692 175.892 114.129C175.75 114.565 175.554 114.938 175.306 115.245C175.062 115.553 174.764 115.79 174.41 115.955C174.056 116.116 173.642 116.197 173.169 116.197C172.723 116.197 172.319 116.102 171.956 115.914C171.597 115.726 171.29 115.461 171.032 115.121C170.775 114.781 170.577 114.381 170.439 113.922C170.306 113.458 170.239 112.955 170.239 112.412ZM171.515 112.267V112.412C171.515 112.784 171.551 113.134 171.625 113.46C171.703 113.786 171.82 114.074 171.977 114.322C172.137 114.57 172.342 114.765 172.59 114.908C172.838 115.046 173.135 115.114 173.479 115.114C173.902 115.114 174.251 115.025 174.527 114.846C174.803 114.666 175.021 114.43 175.182 114.136C175.347 113.841 175.476 113.522 175.568 113.177V111.516C175.517 111.263 175.439 111.02 175.334 110.785C175.233 110.546 175.099 110.335 174.934 110.151C174.773 109.963 174.573 109.813 174.334 109.703C174.095 109.593 173.815 109.538 173.493 109.538C173.144 109.538 172.843 109.611 172.59 109.758C172.342 109.901 172.137 110.098 171.977 110.351C171.82 110.599 171.703 110.889 171.625 111.22C171.551 111.546 171.515 111.895 171.515 112.267ZM179.15 108.6V116.059H177.868V108.6H179.15ZM177.771 106.622C177.771 106.415 177.833 106.24 177.957 106.098C178.086 105.955 178.274 105.884 178.523 105.884C178.766 105.884 178.952 105.955 179.081 106.098C179.214 106.24 179.281 106.415 179.281 106.622C179.281 106.819 179.214 106.989 179.081 107.132C178.952 107.27 178.766 107.339 178.523 107.339C178.274 107.339 178.086 107.27 177.957 107.132C177.833 106.989 177.771 106.819 177.771 106.622ZM183.614 108.6V109.579H179.581V108.6H183.614ZM180.946 106.787H182.222V114.211C182.222 114.464 182.261 114.655 182.339 114.784C182.417 114.912 182.518 114.997 182.642 115.039C182.766 115.08 182.899 115.101 183.042 115.101C183.148 115.101 183.258 115.091 183.373 115.073C183.492 115.05 183.582 115.032 183.642 115.018L183.648 116.059C183.547 116.091 183.414 116.121 183.249 116.148C183.088 116.181 182.892 116.197 182.663 116.197C182.35 116.197 182.063 116.135 181.801 116.011C181.539 115.887 181.33 115.68 181.174 115.39C181.022 115.096 180.946 114.701 180.946 114.205V106.787ZM188.802 114.784V110.944C188.802 110.65 188.742 110.395 188.623 110.179C188.508 109.958 188.333 109.788 188.099 109.669C187.864 109.549 187.575 109.489 187.23 109.489C186.909 109.489 186.626 109.545 186.382 109.655C186.143 109.765 185.955 109.91 185.817 110.089C185.684 110.268 185.617 110.461 185.617 110.668H184.342C184.342 110.402 184.411 110.137 184.549 109.875C184.687 109.614 184.884 109.377 185.142 109.165C185.403 108.949 185.716 108.779 186.079 108.655C186.447 108.527 186.856 108.462 187.306 108.462C187.848 108.462 188.326 108.554 188.74 108.738C189.158 108.922 189.484 109.2 189.719 109.572C189.958 109.94 190.077 110.402 190.077 110.958V114.432C190.077 114.68 190.098 114.944 190.139 115.225C190.185 115.505 190.252 115.746 190.339 115.949V116.059H189.009C188.944 115.912 188.894 115.716 188.857 115.473C188.82 115.225 188.802 114.995 188.802 114.784ZM189.023 111.537L189.036 112.433H187.747C187.384 112.433 187.06 112.463 186.775 112.523C186.49 112.578 186.251 112.663 186.058 112.778C185.865 112.892 185.718 113.037 185.617 113.212C185.516 113.382 185.466 113.582 185.466 113.812C185.466 114.046 185.518 114.26 185.624 114.453C185.73 114.646 185.888 114.8 186.1 114.915C186.316 115.025 186.58 115.08 186.892 115.08C187.283 115.08 187.628 114.997 187.926 114.832C188.225 114.666 188.462 114.464 188.636 114.225C188.816 113.986 188.912 113.754 188.926 113.529L189.471 114.142C189.438 114.335 189.351 114.549 189.209 114.784C189.066 115.018 188.875 115.243 188.636 115.459C188.402 115.671 188.122 115.847 187.795 115.99C187.474 116.128 187.111 116.197 186.706 116.197C186.201 116.197 185.757 116.098 185.376 115.9C184.999 115.703 184.705 115.438 184.494 115.108C184.287 114.772 184.183 114.398 184.183 113.984C184.183 113.584 184.261 113.233 184.418 112.929C184.574 112.621 184.799 112.366 185.093 112.164C185.387 111.957 185.741 111.801 186.155 111.695C186.568 111.59 187.03 111.537 187.54 111.537H189.023ZM192.763 105.471V116.059H191.481V105.471H192.763ZM199.809 116.059H197.714L197.727 114.977H199.809C200.526 114.977 201.124 114.827 201.602 114.529C202.079 114.225 202.438 113.802 202.677 113.26C202.92 112.713 203.042 112.074 203.042 111.344V110.73C203.042 110.156 202.973 109.646 202.835 109.2C202.698 108.75 202.495 108.37 202.229 108.063C201.962 107.75 201.636 107.513 201.25 107.352C200.869 107.192 200.43 107.111 199.933 107.111H197.672V106.022H199.933C200.591 106.022 201.19 106.132 201.733 106.353C202.275 106.569 202.741 106.884 203.132 107.297C203.527 107.706 203.83 108.203 204.042 108.786C204.253 109.365 204.359 110.018 204.359 110.744V111.344C204.359 112.07 204.253 112.725 204.042 113.308C203.83 113.887 203.525 114.381 203.125 114.79C202.73 115.199 202.252 115.514 201.691 115.735C201.135 115.951 200.508 116.059 199.809 116.059ZM198.424 106.022V116.059H197.093V106.022H198.424ZM206.734 109.772V116.059H205.459V108.6H206.7L206.734 109.772ZM209.064 108.559L209.057 109.744C208.952 109.722 208.851 109.708 208.754 109.703C208.662 109.694 208.557 109.689 208.437 109.689C208.143 109.689 207.883 109.735 207.658 109.827C207.433 109.919 207.242 110.048 207.086 110.213C206.93 110.379 206.806 110.576 206.714 110.806C206.626 111.031 206.569 111.279 206.541 111.551L206.183 111.757C206.183 111.307 206.227 110.884 206.314 110.489C206.406 110.094 206.546 109.744 206.734 109.441C206.923 109.133 207.162 108.894 207.451 108.724C207.745 108.55 208.095 108.462 208.499 108.462C208.591 108.462 208.697 108.474 208.816 108.497C208.936 108.515 209.018 108.536 209.064 108.559ZM212.494 116.197C211.975 116.197 211.504 116.109 211.081 115.935C210.663 115.756 210.302 115.505 209.999 115.183C209.7 114.862 209.471 114.48 209.31 114.039C209.149 113.598 209.068 113.115 209.068 112.591V112.302C209.068 111.695 209.158 111.155 209.337 110.682C209.517 110.204 209.76 109.8 210.068 109.469C210.376 109.138 210.725 108.887 211.116 108.717C211.506 108.547 211.911 108.462 212.329 108.462C212.862 108.462 213.322 108.554 213.708 108.738C214.098 108.922 214.418 109.179 214.666 109.51C214.914 109.836 215.098 110.222 215.217 110.668C215.337 111.109 215.397 111.592 215.397 112.116V112.688H209.827V111.647H214.121V111.551C214.103 111.22 214.034 110.898 213.915 110.585C213.8 110.273 213.616 110.016 213.363 109.813C213.11 109.611 212.766 109.51 212.329 109.51C212.04 109.51 211.773 109.572 211.529 109.696C211.286 109.816 211.077 109.995 210.902 110.234C210.727 110.473 210.592 110.765 210.495 111.109C210.399 111.454 210.351 111.852 210.351 112.302V112.591C210.351 112.945 210.399 113.279 210.495 113.591C210.597 113.899 210.741 114.17 210.93 114.404C211.123 114.639 211.355 114.823 211.626 114.956C211.902 115.089 212.214 115.156 212.563 115.156C213.014 115.156 213.395 115.064 213.708 114.88C214.02 114.696 214.294 114.45 214.528 114.142L215.3 114.756C215.139 115 214.935 115.232 214.687 115.452C214.438 115.673 214.133 115.852 213.77 115.99C213.411 116.128 212.986 116.197 212.494 116.197ZM220.578 114.784V110.944C220.578 110.65 220.518 110.395 220.398 110.179C220.284 109.958 220.109 109.788 219.875 109.669C219.64 109.549 219.351 109.489 219.006 109.489C218.684 109.489 218.402 109.545 218.158 109.655C217.919 109.765 217.731 109.91 217.593 110.089C217.46 110.268 217.393 110.461 217.393 110.668H216.118C216.118 110.402 216.187 110.137 216.324 109.875C216.462 109.614 216.66 109.377 216.917 109.165C217.179 108.949 217.492 108.779 217.855 108.655C218.222 108.527 218.631 108.462 219.082 108.462C219.624 108.462 220.102 108.554 220.516 108.738C220.934 108.922 221.26 109.2 221.494 109.572C221.733 109.94 221.853 110.402 221.853 110.958V114.432C221.853 114.68 221.874 114.944 221.915 115.225C221.961 115.505 222.028 115.746 222.115 115.949V116.059H220.784C220.72 115.912 220.67 115.716 220.633 115.473C220.596 115.225 220.578 114.995 220.578 114.784ZM220.798 111.537L220.812 112.433H219.523C219.16 112.433 218.836 112.463 218.551 112.523C218.266 112.578 218.027 112.663 217.834 112.778C217.641 112.892 217.494 113.037 217.393 113.212C217.292 113.382 217.241 113.582 217.241 113.812C217.241 114.046 217.294 114.26 217.4 114.453C217.506 114.646 217.664 114.8 217.875 114.915C218.091 115.025 218.356 115.08 218.668 115.08C219.059 115.08 219.403 114.997 219.702 114.832C220.001 114.666 220.238 114.464 220.412 114.225C220.591 113.986 220.688 113.754 220.702 113.529L221.246 114.142C221.214 114.335 221.127 114.549 220.984 114.784C220.842 115.018 220.651 115.243 220.412 115.459C220.178 115.671 219.898 115.847 219.571 115.99C219.25 116.128 218.886 116.197 218.482 116.197C217.977 116.197 217.533 116.098 217.152 115.9C216.775 115.703 216.481 115.438 216.269 115.108C216.062 114.772 215.959 114.398 215.959 113.984C215.959 113.584 216.037 113.233 216.193 112.929C216.35 112.621 216.575 112.366 216.869 112.164C217.163 111.957 217.517 111.801 217.931 111.695C218.344 111.59 218.806 111.537 219.316 111.537H220.798ZM224.421 110.082V116.059H223.139V108.6H224.352L224.421 110.082ZM224.159 112.047L223.567 112.026C223.571 111.516 223.638 111.045 223.767 110.613C223.895 110.176 224.086 109.797 224.339 109.476C224.591 109.154 224.906 108.906 225.283 108.731C225.66 108.552 226.097 108.462 226.593 108.462C226.942 108.462 227.264 108.513 227.558 108.614C227.852 108.71 228.107 108.864 228.323 109.076C228.539 109.287 228.707 109.558 228.826 109.889C228.946 110.22 229.006 110.62 229.006 111.089V116.059H227.73V111.151C227.73 110.76 227.664 110.448 227.53 110.213C227.402 109.979 227.218 109.809 226.979 109.703C226.74 109.593 226.46 109.538 226.138 109.538C225.761 109.538 225.446 109.604 225.193 109.738C224.941 109.871 224.739 110.055 224.587 110.289C224.435 110.523 224.325 110.792 224.256 111.096C224.192 111.394 224.159 111.711 224.159 112.047ZM228.992 111.344L228.137 111.606C228.142 111.197 228.208 110.804 228.337 110.427C228.47 110.05 228.661 109.715 228.909 109.421C229.162 109.126 229.472 108.894 229.84 108.724C230.207 108.55 230.628 108.462 231.101 108.462C231.501 108.462 231.855 108.515 232.163 108.621C232.475 108.727 232.737 108.89 232.949 109.11C233.165 109.326 233.328 109.604 233.438 109.944C233.548 110.284 233.603 110.689 233.603 111.158V116.059H232.321V111.144C232.321 110.726 232.255 110.402 232.121 110.172C231.993 109.938 231.809 109.774 231.57 109.682C231.335 109.586 231.055 109.538 230.729 109.538C230.449 109.538 230.2 109.586 229.984 109.682C229.768 109.779 229.587 109.912 229.44 110.082C229.293 110.248 229.18 110.438 229.102 110.654C229.028 110.87 228.992 111.1 228.992 111.344ZM239.17 114.08C239.17 113.897 239.129 113.727 239.046 113.57C238.968 113.409 238.805 113.265 238.557 113.136C238.313 113.003 237.946 112.888 237.454 112.791C237.04 112.704 236.666 112.601 236.33 112.481C236 112.362 235.717 112.217 235.483 112.047C235.253 111.877 235.076 111.677 234.952 111.447C234.828 111.217 234.766 110.949 234.766 110.641C234.766 110.347 234.83 110.068 234.959 109.807C235.092 109.545 235.278 109.313 235.517 109.11C235.761 108.908 236.052 108.75 236.392 108.635C236.733 108.52 237.112 108.462 237.53 108.462C238.127 108.462 238.637 108.568 239.06 108.779C239.483 108.991 239.807 109.273 240.032 109.627C240.257 109.977 240.37 110.365 240.37 110.792H239.095C239.095 110.585 239.033 110.386 238.909 110.193C238.789 109.995 238.612 109.832 238.378 109.703C238.148 109.574 237.865 109.51 237.53 109.51C237.176 109.51 236.889 109.565 236.668 109.676C236.452 109.781 236.294 109.917 236.193 110.082C236.096 110.248 236.048 110.422 236.048 110.606C236.048 110.744 236.071 110.868 236.117 110.978C236.167 111.084 236.255 111.183 236.379 111.275C236.503 111.362 236.677 111.445 236.903 111.523C237.128 111.601 237.415 111.679 237.764 111.757C238.375 111.895 238.879 112.061 239.274 112.254C239.669 112.447 239.963 112.683 240.156 112.964C240.349 113.244 240.446 113.584 240.446 113.984C240.446 114.31 240.377 114.609 240.239 114.88C240.106 115.151 239.91 115.386 239.653 115.583C239.4 115.776 239.097 115.928 238.743 116.038C238.394 116.144 238.001 116.197 237.564 116.197C236.907 116.197 236.351 116.08 235.896 115.845C235.441 115.611 235.097 115.307 234.862 114.935C234.628 114.563 234.511 114.17 234.511 113.756H235.793C235.811 114.106 235.912 114.384 236.096 114.591C236.28 114.793 236.505 114.938 236.772 115.025C237.038 115.108 237.302 115.149 237.564 115.149C237.914 115.149 238.205 115.103 238.44 115.011C238.679 114.919 238.86 114.793 238.984 114.632C239.108 114.471 239.17 114.287 239.17 114.08Z" fill="white"/>
</svg>
